<?xml version="1.0" encoding="utf-8"?>
<svg id="master-artboard" viewBox="0 0 1400 980" version="1.1" xmlns="http://www.w3.org/2000/svg" x="0px" y="0px" style="enable-background:new 0 0 1400 980;" width="1400px" height="980px"><rect id="ee-background" x="0" y="0" width="1400" height="980" style="fill: white; fill-opacity: 0; pointer-events: none;"/><defs><radialGradient id="gradient-0" gradientUnits="objectBoundingBox" cx="0.5" cy="0.5" r="0.5">
                <stop offset="0" style="stop-color: #ffffff"/>
                <stop offset="1" style="stop-color: #cccccc"/>
              </radialGradient><style id="ee-google-fonts">@import url(https://fonts.googleapis.com/css?family=Alegreya+Sans:100,100italic,300,300italic,400,400italic,500,500italic,700,700italic,800,800italic,900,900italic|Alegreya+Sans+SC:100,100italic,300,300italic,400,400italic,500,500italic,700,700italic,800,800italic,900,900italic);</style><style id="style-1">@import url(https://fonts.googleapis.com/css?family=Open+Sans:300,300italic,400,400italic,600,600italic,700,700italic,800,800italic);</style><linearGradient id="gradient-1" gradientUnits="userSpaceOnUse" x1="247.5469741821289" y1="1205.0458984375" x2="247.5469741821289" y2="1228.7755126953125">
                <stop offset="0" style="stop-color: #000000"/>
                <stop offset="1" style="stop-color: #000000"/>
              </linearGradient><style id="style-2">@import url(https://fonts.googleapis.com/css?family=Aldrich:400);</style></defs>














<g transform="matrix(5.0386762619018555, 0, 0, 5.0386762619018555, -578.077880859375, -5725.90087890625)"><g id="g-1" transform="matrix(1, 0, 0, 1, -1.4210854715202004e-14, 1.5877185600361372)">
	<g id="g-2">
		<g>
			
		<path style="fill: rgb(156, 156, 156); fill-opacity: 1; stroke: rgb(0, 0, 0); stroke-opacity: 1; stroke-width: 0; paint-order: fill;" transform="matrix(1, 0, 0, 1, 0, -19.449548198517277)"/><path style="fill: rgb(156, 156, 156); fill-opacity: 1; stroke: rgb(0, 0, 0); stroke-opacity: 1; stroke-width: 0; paint-order: fill;" transform="matrix(1, 0, 0, 1, 0, -19.449548198517277)"/><path d="M 273.5704345703125 1239.363525390625" style="fill: rgb(156, 156, 156); fill-opacity: 1; stroke: rgb(0, 0, 0); stroke-opacity: 1; stroke-width: 0; paint-order: fill;"/></g>
	</g>
</g></g><path d="M 627.2985229492188 146.92166137695312" style="fill: rgb(255, 255, 255); fill-opacity: 1; stroke: rgb(0, 0, 0); stroke-opacity: 1; stroke-width: 0; paint-order: fill;" transform="matrix(0.7145624228059051, 0, 0, 0.7145624228059051, 93.64943142789602, 162.26410230499513)"/><path style="fill: rgb(255, 255, 255); fill-opacity: 1; stroke: rgb(0, 0, 0); stroke-opacity: 1; stroke-width: 0; paint-order: fill;"/><path d="M 955.4910888671875 380.49560546875" style="fill: rgb(255, 255, 255); fill-opacity: 1; stroke: rgb(0, 0, 0); stroke-opacity: 1; stroke-width: 0; paint-order: fill;"/><path d="M 733.0316772460938 468.30853271484375" style="fill: rgb(255, 255, 255); fill-opacity: 1; stroke: rgb(0, 0, 0); stroke-opacity: 1; stroke-width: 0; paint-order: fill;"/><path d="M 351.5332336425781 405.8638000488281" style="fill: rgb(255, 255, 255); fill-opacity: 1; stroke: rgb(0, 0, 0); stroke-opacity: 1; stroke-width: 0; paint-order: fill;"/><path style="fill: rgb(255, 255, 255); fill-opacity: 1; stroke: rgb(0, 0, 0); stroke-opacity: 1; stroke-width: 0; paint-order: fill;"/><path d="M 484.22833251953125 476.1141357421875" style="fill: rgb(255, 255, 255); fill-opacity: 1; stroke: rgb(0, 0, 0); stroke-opacity: 1; stroke-width: 0; paint-order: fill;"/><g transform="matrix(1.4457197189331055, 0, 0, 1.4457197189331055, -490.614990234375, 146.8536376953125)">
					<path d="M 878.9000244140625 324 L 843.9000244140625 328.29998779296875 L 878.9000244140625 409.6000061035156 L 913.9000244140625 328.29998779296875 Z" fill="#D4382C" style="fill: rgb(152, 152, 152);"/>
				</g><path fill="#F7AA77" d="M852.5,348.4l26.3,61.2l-3.5-50.2C875.4,359.4,862.4,352.4,852.5,348.4z" transform="matrix(1.4457197189331055, 0, 0, 1.4457197189331055, -490.614990234375, 146.8536376953125)" style="fill: rgb(203, 203, 203);"/><path d="M 811.5 258.70001220703125 L 878.2999877929688 220 L 945.2000122070312 258.70001220703125 L 945.2000122070312 329.29998779296875 L 878.2999877929688 368 L 811.5 329.29998779296875 Z" fill="#ED4A35" transform="matrix(1.4457197189331055, 0, 0, 1.4457197189331055, -490.614990234375, 146.8536376953125)" style="fill: rgb(215, 215, 215);"/><path d="M 945.2000122070312 258.70001220703125 L 878.2999877929688 220 L 878.2999877929688 368 L 945.2000122070312 329.29998779296875 Z" fill="#D4382C" transform="matrix(1.4457197189331055, 0, 0, 1.4457197189331055, -490.614990234375, 146.8536376953125)" style="fill: rgb(170, 170, 170);"/><path d="M 811.5 205.8000030517578 L 878.2999877929688 167.1999969482422 L 945.2000122070312 205.8000030517578 L 945.2000122070312 283 L 878.2999877929688 321.6000061035156 L 811.5 283 Z" fill="#ED4A35" transform="matrix(1.4457197189331055, 0, 0, 1.4457197189331055, -490.614990234375, 146.8536376953125)" style="fill: rgb(139, 139, 139);"/><path d="M 828.2000122070312 215.5 L 878.2999877929688 186.5 L 928.5 215.5 L 928.5 273.3999938964844 L 878.2999877929688 302.29998779296875 L 828.2000122070312 273.3999938964844 Z" fill="#F7AA77" transform="matrix(1.4457197189331055, 0, 0, 1.4457197189331055, -490.614990234375, 146.8536376953125)" style="fill: rgb(255, 255, 255);"/><path d="M 878.2999877929688 186.5 L 828.2000122070312 215.5 L 828.2000122070312 226.3000030517578 L 878.2999877929688 197.39999389648438 L 928.5 226.3000030517578 L 928.5 215.5 Z" fill="#D4382C" transform="matrix(1.4457197189331055, 0, 0, 1.4457197189331055, -490.614990234375, 146.8536376953125)" style="fill: rgb(237, 237, 237); fill-opacity: 1;"/><path d="M 852.6599731445312 233 L 849.0900268554688 233 L 849.3099975585938 224.50999450683594 L 849.0900268554688 204.8000030517578 L 852.7000122070312 204.8000030517578 L 852.47998046875 224.1999969482422 L 852.6599731445312 233 ZM 883.4674072265625 233 L 869.5674438476562 233 L 869.7874145507812 224.50999450683594 L 869.5674438476562 204.8000030517578 L 873.1774291992188 204.8000030517578 L 872.9573974609375 224.1999969482422 L 873.08740234375 230.0500030517578 L 883.5173950195312 230.0500030517578 L 883.7774047851562 230.36000061035156 L 883.4674072265625 233 ZM 892.3469848632812 233 L 888.7770385742188 233 L 888.9970092773438 224.50999450683594 L 888.7770385742188 204.8000030517578 L 892.3870239257812 204.8000030517578 L 892.1669921875 224.1999969482422 L 892.3469848632812 233 ZM 907.336181640625 233 L 897.9161376953125 204.8000030517578 L 901.5261840820312 204.8000030517578 L 902.1861572265625 207.66000366210938 L 909.3561401367188 229.44000244140625 L 909.6161499023438 229.44000244140625 L 917.5361938476562 207.8300018310547 L 918.2461547851562 204.8000030517578 L 921.7661743164062 204.8000030517578 L 911.4261474609375 233 L 907.336181640625 233 ZM 942.7761840820312 233 L 926.9362182617188 233 L 927.1561889648438 224.50999450683594 L 926.9362182617188 204.8000030517578 L 942.826171875 204.8000030517578 L 942.9962158203125 205.14999389648438 L 942.7362060546875 207.8800048828125 L 936.086181640625 207.74000549316406 L 930.5061645507812 207.8300018310547 L 930.4161987304688 217.07000732421875 L 935.6961669921875 217.16000366210938 L 940.356201171875 217.02999877929688 L 940.626220703125 217.33999633789062 L 940.316162109375 220.05999755859375 L 935.3861694335938 219.97999572753906 L 930.3662109375 220.02000427246094 L 930.326171875 224.1999969482422 L 930.4561767578125 230.0500030517578 L 936.0462036132812 230.10000610351562 L 942.826171875 229.9199981689453 L 943.0462036132812 230.27000427246094 L 942.7761840820312 233 Z" transform="matrix(0.860741913318634, 0, 0, 0.8380972146987915, 7.506744384765625, 300.899169921875)" style="white-space: pre; fill: rgb(51, 51, 51);"/><path d="M 870.9199829101562 233 L 867.3499755859375 233 L 867.6199951171875 224.50999450683594 L 867.5700073242188 220.27999877929688 L 859.6500244140625 220.14999389648438 L 852.52001953125 220.27999877929688 L 852.47998046875 224.1999969482422 L 852.6599731445312 233 L 849.0900268554688 233 L 849.3099975585938 224.50999450683594 L 849.0900268554688 204.8000030517578 L 852.7000122070312 204.8000030517578 L 852.5700073242188 217.1999969482422 L 859.9600219726562 217.33999633789062 L 867.530029296875 217.1999969482422 L 867.3499755859375 204.8000030517578 L 870.9600219726562 204.8000030517578 L 870.780029296875 224.1999969482422 L 870.9199829101562 233 ZM 895.7608642578125 233 L 879.9208984375 233 L 880.140869140625 224.50999450683594 L 879.9208984375 204.8000030517578 L 895.8108520507812 204.8000030517578 L 895.9808959960938 205.14999389648438 L 895.7208862304688 207.8800048828125 L 889.0708618164062 207.74000549316406 L 883.4908447265625 207.8300018310547 L 883.40087890625 217.07000732421875 L 888.6808471679688 217.16000366210938 L 893.3408813476562 217.02999877929688 L 893.6109008789062 217.33999633789062 L 893.3008422851562 220.05999755859375 L 888.370849609375 219.97999572753906 L 883.3508911132812 220.02000427246094 L 883.3108520507812 224.1999969482422 L 883.4408569335938 230.0500030517578 L 889.0308837890625 230.10000610351562 L 895.8108520507812 229.9199981689453 L 896.0308837890625 230.27000427246094 L 895.7608642578125 233 ZM 913.3980712890625 221.60000610351562 C 915.3313598632812 224.8000030517578 917.7647094726562 228.32000732421875 920.6980590820312 232.16000366210938 L 920.6580810546875 232.60000610351562 C 919.5980834960938 233.01333618164062 918.5114135742188 233.27999877929688 917.3980712890625 233.39999389648438 L 916.9180297851562 233.08999633789062 C 914.5114135742188 229.48333740234375 912.354736328125 225.9633331298828 910.4480590820312 222.52999877929688 L 905.2980346679688 222.52999877929688 L 905.2980346679688 224.1999969482422 L 905.47802734375 233 L 901.9080810546875 233 L 902.1280517578125 224.50999450683594 L 901.9080810546875 204.8000030517578 L 910.5380249023438 204.75 C 913.2913818359375 204.75 915.4247436523438 205.44667053222656 916.9380493164062 206.83999633789062 C 918.4447021484375 208.23333740234375 919.1980590820312 210.22000122070312 919.1980590820312 212.8000030517578 C 919.1980590820312 214.74000549316406 918.6947021484375 216.47999572753906 917.6880493164062 218.02000427246094 C 916.6747436523438 219.55999755859375 915.2447509765625 220.75332641601562 913.3980712890625 221.60000610351562 M 910.6180419921875 219.6699981689453 C 913.9047241210938 218.72999572753906 915.5480346679688 216.5433349609375 915.5480346679688 213.11000061035156 C 915.5480346679688 209.6233367919922 913.6113891601562 207.80667114257812 909.738037109375 207.66000366210938 L 905.47802734375 207.79000854492188 L 905.3380737304688 219.5399932861328 L 910.6180419921875 219.6699981689453 ZM 942.9471435546875 233 L 927.107177734375 233 L 927.3271484375 224.50999450683594 L 927.107177734375 204.8000030517578 L 942.9971313476562 204.8000030517578 L 943.1671752929688 205.14999389648438 L 942.9071655273438 207.8800048828125 L 936.2571411132812 207.74000549316406 L 930.6771240234375 207.8300018310547 L 930.587158203125 217.07000732421875 L 935.8671264648438 217.16000366210938 L 940.5271606445312 217.02999877929688 L 940.7971801757812 217.33999633789062 L 940.4871215820312 220.05999755859375 L 935.55712890625 219.97999572753906 L 930.5371704101562 220.02000427246094 L 930.4971313476562 224.1999969482422 L 930.6271362304688 230.0500030517578 L 936.2171630859375 230.10000610351562 L 942.9971313476562 229.9199981689453 L 943.2171630859375 230.27000427246094 L 942.9471435546875 233 ZM 951.7843627929688 223.41000366210938 L 949.71435546875 223.6300048828125 L 949.3143310546875 223.22999572753906 L 949.3143310546875 204.52999877929688 L 949.664306640625 204.08999633789062 L 952.3543090820312 203.95999145507812 L 952.7443237304688 204.39999389648438 L 951.7843627929688 223.41000366210938 M 950.2843627929688 229.1300048828125 C 950.8709716796875 229.1300048828125 951.3343505859375 229.30667114257812 951.67431640625 229.66000366210938 C 952.0076904296875 230.0066680908203 952.17431640625 230.49000549316406 952.17431640625 231.11000061035156 C 952.17431640625 231.7566680908203 951.9910278320312 232.27000427246094 951.6243286132812 232.64999389648438 C 951.2576904296875 233.02999877929688 950.7676391601562 233.22000122070312 950.1543579101562 233.22000122070312 C 948.8343505859375 233.22000122070312 948.17431640625 232.54666137695312 948.17431640625 231.1999969482422 C 948.17431640625 230.5800018310547 948.3643188476562 230.0800018310547 948.7443237304688 229.6999969482422 C 949.1243286132812 229.32000732421875 949.6376953125 229.1300048828125 950.2843627929688 229.1300048828125 Z" transform="matrix(0.7510444521903992, 0, 0, 0.8405538201332092, 101.71857452392578, 341.36785888671875)" style="white-space: pre; fill: rgb(51, 51, 51);"/></svg>