<?xml version="1.0" encoding="utf-8"?>
<svg id="master-artboard" viewBox="0 0 1096 780" version="1.1" xmlns="http://www.w3.org/2000/svg" x="0px" y="0px" style="enable-background:new 0 0 1096 780;" width="1096px" height="780px" xmlns:xlink="http://www.w3.org/1999/xlink"><rect id="ee-background" x="0" y="0" width="1096" height="780" style="fill: white; fill-opacity: 0; pointer-events: none;"/>

<defs style="opacity: 0.49;">
			<path d="M 0 0 H 1096 V 780 H 0 V 0 Z" id="SVGID_1_" class="st1" style="opacity: 0.49;"/>
		<style id="ee-google-fonts">@import url(https://fonts.googleapis.com/css?family=Aldrich:400);</style></defs><clipPath id="SVGID_2_" style="opacity: 0.49;">
			<use style="overflow:visible;" xlink:href="#SVGID_1_"/>
		</clipPath><path class="st9" d="M 530 349.5371398925781 L 530 352.6431579589844 L 313.57830810546875 351.95880126953125 L 315.6313171386719 352.57447509765626 L 316.315673828125 353.25880126953126 L 317 420 L 377.7180236816406 420 C 372.4180236816406 437 357.09999999999997 461.1 356.4 480.5 C 356.4 480.5 356.4 480.4 356.5 480.4 C 356.5 481 356.5 481.59999999999997 356.4 482.2 C 367.9 460.8 381.6036376953125 429 395.6036376953125 420 L 530 420 L 529.3156127929688 349.5371398925781 L 530 349.5371398925781 Z" style="fill-rule: evenodd; clip-rule: evenodd; fill: rgb(255, 255, 255);" transform="matrix(1.5592615998724746, 0, 0, 1.5592615998724746, -115.78100274303239, -223.65412537980893)"/>

<path d="M 563.68017578125 304.38531494140625 L 563.68017578125 304.38531494140625" style="fill: rgb(238, 85, 119); fill-opacity: 1; stroke: rgb(0, 0, 0); stroke-opacity: 1; stroke-width: 0; paint-order: fill;"/><path d="M 7.980000019073486 0.5900001525878906 L 7.980000019073486 30 L 3.7699999809265137 30 L 3.7699999809265137 0.5900001525878906 L 7.980000019073486 0.5900001525878906 ZM 34.759376525878906 0.5900001525878906 L 34.759376525878906 25.799999237060547 L 49.86937713623047 25.799999237060547 L 49.86937713623047 30 L 30.54937744140625 30 L 30.54937744140625 0.5900001525878906 L 34.759376525878906 0.5900001525878906 ZM 60.34095764160156 0.5900001525878906 L 60.34095764160156 30 L 56.130958557128906 30 L 56.130958557128906 0.5900001525878906 L 60.34095764160156 0.5900001525878906 ZM 77.92024230957031 30 L 66.58023834228516 0.5900001525878906 L 71.09024047851562 0.5900001525878906 L 80.240234375 24.790000915527344 L 89.41024017333984 0.5900001525878906 L 93.90023803710938 0.5900001525878906 L 82.56024169921875 30 L 77.92024230957031 30 ZM 100.13689422607422 0.5900001525878906 L 121.56689453125 0.5900001525878906 L 121.56689453125 4.799999237060547 L 104.3469009399414 4.799999237060547 L 104.3469009399414 13.200000762939453 L 119.0468978881836 13.200000762939453 L 119.0468978881836 17.40999984741211 L 104.3469009399414 17.40999984741211 L 104.3469009399414 25.799999237060547 L 121.56689453125 25.799999237060547 L 121.56689453125 30 L 100.13689422607422 30 L 100.13689422607422 0.5900001525878906 ZM 168.14186096191406 0.5900001525878906 L 168.14186096191406 30 L 163.93185424804688 30 L 163.93185424804688 17.40999984741211 L 147.1018524169922 17.40999984741211 L 147.1018524169922 30 L 142.89186096191406 30 L 142.89186096191406 0.5900001525878906 L 147.1018524169922 0.5900001525878906 L 147.1018524169922 13.200000762939453 L 163.93185424804688 13.200000762939453 L 163.93185424804688 0.5900001525878906 L 168.14186096191406 0.5900001525878906 ZM 176.9021453857422 0.5900001525878906 L 198.33213806152344 0.5900001525878906 L 198.33213806152344 4.799999237060547 L 181.1121368408203 4.799999237060547 L 181.1121368408203 13.200000762939453 L 195.8121337890625 13.200000762939453 L 195.8121337890625 17.40999984741211 L 181.1121368408203 17.40999984741211 L 181.1121368408203 25.799999237060547 L 198.33213806152344 25.799999237060547 L 198.33213806152344 30 L 176.9021453857422 30 L 176.9021453857422 0.5900001525878906 ZM 229.0869903564453 11.09000015258789 C 229.0869903564453 15.1899995803833 227.3369903564453 17.529998779296875 223.8369903564453 18.110000610351562 L 229.3769989013672 30 L 224.7169952392578 30 L 219.26699829101562 18.25 L 210.05699157714844 18.25 L 210.05699157714844 30 L 205.8470001220703 30 L 205.8470001220703 0.5900001525878906 L 221.94699096679688 0.5900001525878906 C 226.70700073242188 0.5900001525878906 229.0869903564453 2.9766674041748047 229.0869903564453 7.75 L 229.0869903564453 11.09000015258789 M 210.05699157714844 14.039999961853027 L 221.72698974609375 14.039999961853027 C 222.8470001220703 14.039999961853027 223.65365600585938 13.796667098999023 224.14700317382812 13.309999465942383 C 224.6336669921875 12.816667556762695 224.8769989013672 12.010000228881836 224.8769989013672 10.889999389648438 L 224.8769989013672 7.950000762939453 C 224.8769989013672 6.829999923706055 224.6336669921875 6.023332595825195 224.14700317382812 5.530000686645508 C 223.65365600585938 5.043333053588867 222.8470001220703 4.799999237060547 221.72698974609375 4.799999237060547 L 210.05699157714844 4.799999237060547 L 210.05699157714844 14.039999961853027 ZM 237.31431579589844 0.5900001525878906 L 258.74432373046875 0.5900001525878906 L 258.74432373046875 4.799999237060547 L 241.52430725097656 4.799999237060547 L 241.52430725097656 13.200000762939453 L 256.22430419921875 13.200000762939453 L 256.22430419921875 17.40999984741211 L 241.52430725097656 17.40999984741211 L 241.52430725097656 25.799999237060547 L 258.74432373046875 25.799999237060547 L 258.74432373046875 30 L 237.31431579589844 30 L 237.31431579589844 0.5900001525878906 ZM 267.32916259765625 19.09000015258789 L 265.649169921875 0.5900001525878906 L 271.3491516113281 0.5900001525878906 L 269.6691589355469 19.09000015258789 L 267.32916259765625 19.09000015258789 M 265.4191589355469 23.869998931884766 L 271.5491638183594 23.869998931884766 L 271.5491638183594 30 L 265.4191589355469 30 L 265.4191589355469 23.869998931884766 Z" transform="matrix(1.0670571327209473, 0, 0, 1.0670571327209473, 396.5595397949219, 363.5917663574219)" style="fill: rgb(51, 51, 51); white-space: pre;"/></svg>