<?xml version="1.0" encoding="utf-8"?>
<svg id="master-artboard" viewBox="0 0 1400 980" version="1.1" xmlns="http://www.w3.org/2000/svg" x="0px" y="0px" enable-background="new 0 0 1400 980" width="1400px" height="980px"><defs><style id="ee-google-fonts">@import url(https://fonts.googleapis.com/css?family=Maven+Pro:400,500,700,900);</style><radialGradient id="gradient-0" gradientUnits="objectBoundingBox" cx="0.5" cy="0.5" r="0.5">
                <stop offset="0" style="stop-color: #ffffff"/>
                <stop offset="1" style="stop-color: #cccccc"/>
              </radialGradient></defs>

<path d="M 82.65028381347656 141.3897705078125 L 399.7854919433594 142.6337432861328 L 399.7854919433594 195.50552368164062 L 247.2940673828125 195.50552368164062 L 236.32814025878906 253.3851318359375 L 223.44830322265625 195.79901123046875 L 83.9869155883789 197.2726287841797" style="fill: rgb(95, 95, 95); fill-opacity: 1; stroke: rgb(0, 0, 0); stroke-opacity: 1; stroke-width: 0; paint-order: fill;" transform="matrix(1.780651092529297, 0, 0, 1.780651092529297, 263.3937377929688, 171.6557769775391)"/><path d="M 322.9465637207031 690.4388427734375" style="fill: rgb(23, 23, 23); fill-opacity: 1; stroke: rgb(0, 0, 0); stroke-opacity: 1; stroke-width: 0; paint-order: fill;"/><path d="M 3.9200000762939453 30 L 3.9200000762939453 -0.07999992370605469 L 7.179999828338623 -0.07999992370605469 L 7.179999828338623 30 L 3.9200000762939453 30 ZM 37.34362030029297 30 L 37.34362030029297 -0.07999992370605469 L 40.60362243652344 -0.07999992370605469 L 40.60362243652344 26.850000381469727 L 55.9736213684082 26.850000381469727 L 55.9736213684082 30 L 37.34362030029297 30 ZM 65.44903564453125 30 L 65.44903564453125 -0.07999992370605469 L 68.70903778076172 -0.07999992370605469 L 68.70903778076172 30 L 65.44903564453125 30 ZM 77.04052734375 -0.07999992370605469 L 80.50052642822266 -0.07999992370605469 L 90.21052551269531 25.350000381469727 L 99.85052490234375 -0.07999992370605469 L 103.33052062988281 -0.07999992370605469 L 91.77052307128906 30 L 88.58052062988281 30 L 77.04052734375 -0.07999992370605469 ZM 111.70834350585938 30 L 111.70834350585938 -0.07999992370605469 L 130.68833923339844 -0.07999992370605469 L 130.68833923339844 2.979999542236328 L 114.96834564208984 2.979999542236328 L 114.96834564208984 13.350000381469727 L 128.79833984375 13.350000381469727 L 128.79833984375 16.520000457763672 L 114.96834564208984 16.520000457763672 L 114.96834564208984 26.940000534057617 L 130.68833923339844 26.940000534057617 L 130.68833923339844 30 L 111.70834350585938 30 ZM 159.618896484375 30 L 159.618896484375 -0.07999992370605469 L 162.87889099121094 -0.07999992370605469 L 162.87889099121094 13.399999618530273 L 178.88890075683594 13.399999618530273 L 178.88890075683594 -0.07999992370605469 L 182.118896484375 -0.07999992370605469 L 182.118896484375 30 L 178.88890075683594 30 L 178.88890075683594 16.520000457763672 L 162.87889099121094 16.520000457763672 L 162.87889099121094 30 L 159.618896484375 30 ZM 193.40460205078125 30 L 193.40460205078125 -0.07999992370605469 L 212.3845977783203 -0.07999992370605469 L 212.3845977783203 2.979999542236328 L 196.6645965576172 2.979999542236328 L 196.6645965576172 13.350000381469727 L 210.49459838867188 13.350000381469727 L 210.49459838867188 16.520000457763672 L 196.6645965576172 16.520000457763672 L 196.6645965576172 26.940000534057617 L 212.3845977783203 26.940000534057617 L 212.3845977783203 30 L 193.40460205078125 30 ZM 222.23655700683594 30 L 222.23655700683594 -0.07999992370605469 L 233.28656005859375 -0.07999992370605469 C 236.5598907470703 -0.07999992370605469 239.07989501953125 0.6666660308837891 240.8465576171875 2.1599998474121094 C 242.6065673828125 3.64666748046875 243.48655700683594 5.813333511352539 243.48655700683594 8.65999984741211 C 243.48655700683594 9.953332901000977 243.27989196777344 11.129999160766602 242.86656188964844 12.190000534057617 C 242.45323181152344 13.24333381652832 241.98655700683594 14.063333511352539 241.466552734375 14.649999618530273 C 240.94656372070312 15.236666679382324 240.32655334472656 15.74666690826416 239.6065673828125 16.18000030517578 C 238.88656616210938 16.61333465576172 238.29989624023438 16.899999618530273 237.8465576171875 17.040000915527344 C 237.39321899414062 17.18000030517578 236.966552734375 17.293333053588867 236.56655883789062 17.380001068115234 L 244.82655334472656 30 L 240.99655151367188 30 L 233.15655517578125 17.869998931884766 L 225.49655151367188 17.869998931884766 L 225.49655151367188 30 L 222.23655700683594 30 M 225.49655151367188 14.8100004196167 L 233.11656188964844 14.8100004196167 C 234.60989379882812 14.8100004196167 235.85989379882812 14.636666297912598 236.86656188964844 14.289999961853027 C 237.87322998046875 13.94333267211914 238.6032257080078 13.463333129882812 239.0565643310547 12.850000381469727 C 239.5098876953125 12.229999542236328 239.81988525390625 11.620000839233398 239.98655700683594 11.020000457763672 C 240.1465606689453 10.420000076293945 240.2265625 9.713333129882812 240.2265625 8.899999618530273 C 240.2265625 8.079999923706055 240.1465606689453 7.370000839233398 239.98655700683594 6.770000457763672 C 239.81988525390625 6.170000076293945 239.5098876953125 5.559999465942383 239.0565643310547 4.940000534057617 C 238.6032257080078 4.326665878295898 237.87322998046875 3.8466663360595703 236.86656188964844 3.5 C 235.85989379882812 3.1533336639404297 234.60989379882812 2.979999542236328 233.11656188964844 2.979999542236328 L 225.49655151367188 2.979999542236328 L 225.49655151367188 14.8100004196167 ZM 253.798583984375 30 L 253.798583984375 -0.07999992370605469 L 272.7785949707031 -0.07999992370605469 L 272.7785949707031 2.979999542236328 L 257.05859375 2.979999542236328 L 257.05859375 13.350000381469727 L 270.8885803222656 13.350000381469727 L 270.8885803222656 16.520000457763672 L 257.05859375 16.520000457763672 L 257.05859375 26.940000534057617 L 272.7785949707031 26.940000534057617 L 272.7785949707031 30 L 253.798583984375 30 ZM 285.6447448730469 30 L 285.6447448730469 26.389999389648438 L 289.2547302246094 26.389999389648438 L 289.2547302246094 30 L 285.6447448730469 30 M 285.8247375488281 -0.07999992370605469 L 289.084716796875 -0.07999992370605469 L 288.7547302246094 22.43000030517578 L 286.15472412109375 22.43000030517578 L 285.8247375488281 -0.07999992370605469 Z" transform="matrix(1.3970707654953003, 0, 0, 1.3970707654953003, 488.40313720703125, 438.6615295410156)" style="fill: rgb(7, 7, 7); white-space: pre; fill-opacity: 1;"/><path d="M 82.65028381347656 141.3897705078125 L 399.7854919433594 142.6337432861328 L 399.7854919433594 195.50552368164062 L 247.2940673828125 195.50552368164062 L 236.32814025878906 253.3851318359375 L 223.44830322265625 195.79901123046875 L 83.9869155883789 197.2726287841797" style="fill: url('#gradient-0'); fill-opacity: 1; stroke: rgb(0, 0, 0); stroke-opacity: 1; stroke-width: 0; paint-order: fill;" transform="matrix(1.780651092529297, 0, 0, 1.780651092529297, 259.4544394917243, 165.72375609483515)"/><path d="M 3.9200000762939453 30 L 3.9200000762939453 -0.07999992370605469 L 7.179999828338623 -0.07999992370605469 L 7.179999828338623 30 L 3.9200000762939453 30 ZM 37.3436279296875 30 L 37.3436279296875 -0.07999992370605469 L 40.60363006591797 -0.07999992370605469 L 40.60363006591797 26.850000381469727 L 55.973628997802734 26.850000381469727 L 55.973628997802734 30 L 37.3436279296875 30 ZM 65.44905090332031 30 L 65.44905090332031 -0.07999992370605469 L 68.70905303955078 -0.07999992370605469 L 68.70905303955078 30 L 65.44905090332031 30 ZM 77.0405502319336 -0.07999992370605469 L 80.50054931640625 -0.07999992370605469 L 90.2105484008789 25.350000381469727 L 99.85054779052734 -0.07999992370605469 L 103.33055114746094 -0.07999992370605469 L 91.77054595947266 30 L 88.58055114746094 30 L 77.0405502319336 -0.07999992370605469 ZM 111.70836639404297 30 L 111.70836639404297 -0.07999992370605469 L 130.68836975097656 -0.07999992370605469 L 130.68836975097656 2.979999542236328 L 114.96836853027344 2.979999542236328 L 114.96836853027344 13.350000381469727 L 128.79837036132812 13.350000381469727 L 128.79837036132812 16.520000457763672 L 114.96836853027344 16.520000457763672 L 114.96836853027344 26.940000534057617 L 130.68836975097656 26.940000534057617 L 130.68836975097656 30 L 111.70836639404297 30 ZM 159.61892700195312 30 L 159.61892700195312 -0.07999992370605469 L 162.87892150878906 -0.07999992370605469 L 162.87892150878906 13.399999618530273 L 178.88893127441406 13.399999618530273 L 178.88893127441406 -0.07999992370605469 L 182.11892700195312 -0.07999992370605469 L 182.11892700195312 30 L 178.88893127441406 30 L 178.88893127441406 16.520000457763672 L 162.87892150878906 16.520000457763672 L 162.87892150878906 30 L 159.61892700195312 30 ZM 193.40463256835938 30 L 193.40463256835938 -0.07999992370605469 L 212.38462829589844 -0.07999992370605469 L 212.38462829589844 2.979999542236328 L 196.6646270751953 2.979999542236328 L 196.6646270751953 13.350000381469727 L 210.49462890625 13.350000381469727 L 210.49462890625 16.520000457763672 L 196.6646270751953 16.520000457763672 L 196.6646270751953 26.940000534057617 L 212.38462829589844 26.940000534057617 L 212.38462829589844 30 L 193.40463256835938 30 ZM 222.23658752441406 30 L 222.23658752441406 -0.07999992370605469 L 233.28659057617188 -0.07999992370605469 C 236.55992126464844 -0.07999992370605469 239.07992553710938 0.6666660308837891 240.84658813476562 2.1599998474121094 C 242.60659790039062 3.64666748046875 243.48658752441406 5.813333511352539 243.48658752441406 8.65999984741211 C 243.48658752441406 9.953332901000977 243.27992248535156 11.129999160766602 242.86659240722656 12.190000534057617 C 242.45326232910156 13.24333381652832 241.98658752441406 14.063333511352539 241.46658325195312 14.649999618530273 C 240.94659423828125 15.236666679382324 240.3265838623047 15.74666690826416 239.60659790039062 16.18000030517578 C 238.8865966796875 16.61333465576172 238.2999267578125 16.899999618530273 237.84658813476562 17.040000915527344 C 237.39324951171875 17.18000030517578 236.96658325195312 17.293333053588867 236.56658935546875 17.380001068115234 L 244.8265838623047 30 L 240.99658203125 30 L 233.15658569335938 17.869998931884766 L 225.49658203125 17.869998931884766 L 225.49658203125 30 L 222.23658752441406 30 M 225.49658203125 14.8100004196167 L 233.11659240722656 14.8100004196167 C 234.60992431640625 14.8100004196167 235.85992431640625 14.636666297912598 236.86659240722656 14.289999961853027 C 237.87326049804688 13.94333267211914 238.60325622558594 13.463333129882812 239.0565948486328 12.850000381469727 C 239.50991821289062 12.229999542236328 239.81991577148438 11.620000839233398 239.98658752441406 11.020000457763672 C 240.14659118652344 10.420000076293945 240.22659301757812 9.713333129882812 240.22659301757812 8.899999618530273 C 240.22659301757812 8.079999923706055 240.14659118652344 7.370000839233398 239.98658752441406 6.770000457763672 C 239.81991577148438 6.170000076293945 239.50991821289062 5.559999465942383 239.0565948486328 4.940000534057617 C 238.60325622558594 4.326665878295898 237.87326049804688 3.8466663360595703 236.86659240722656 3.5 C 235.85992431640625 3.1533336639404297 234.60992431640625 2.979999542236328 233.11659240722656 2.979999542236328 L 225.49658203125 2.979999542236328 L 225.49658203125 14.8100004196167 ZM 253.79861450195312 30 L 253.79861450195312 -0.07999992370605469 L 272.77862548828125 -0.07999992370605469 L 272.77862548828125 2.979999542236328 L 257.0586242675781 2.979999542236328 L 257.0586242675781 13.350000381469727 L 270.88861083984375 13.350000381469727 L 270.88861083984375 16.520000457763672 L 257.0586242675781 16.520000457763672 L 257.0586242675781 26.940000534057617 L 272.77862548828125 26.940000534057617 L 272.77862548828125 30 L 253.79861450195312 30 ZM 285.644775390625 30 L 285.644775390625 26.389999389648438 L 289.2547607421875 26.389999389648438 L 289.2547607421875 30 L 285.644775390625 30 M 285.82476806640625 -0.07999992370605469 L 289.0847473144531 -0.07999992370605469 L 288.7547607421875 22.43000030517578 L 286.1547546386719 22.43000030517578 L 285.82476806640625 -0.07999992370605469 Z" transform="matrix(1.3970707654953003, 0, 0, 1.3970707654953003, 485.77789306640625, 438.9591064453125)" style="fill: rgb(81, 81, 81); white-space: pre; fill-opacity: 1;"/></svg>