<?xml version="1.0" encoding="utf-8"?>
<svg id="master-artboard" viewBox="0 0 1400 980" version="1.1" xmlns="http://www.w3.org/2000/svg" x="0px" y="0px" style="enable-background:new 0 0 1400 980;" width="1400px" height="980px"><defs><radialGradient id="gradient-0" gradientUnits="objectBoundingBox" cx="0.5" cy="0.5" r="0.5">
                <stop offset="0" style="stop-color: #ffffff"/>
                <stop offset="1" style="stop-color: #cccccc"/>
              </radialGradient><style id="ee-google-fonts">@import url(https://fonts.googleapis.com/css?family=Open+Sans:300,300italic,400,400italic,600,600italic,700,700italic,800,800italic);</style><style id="style-1">@import url(https://fonts.googleapis.com/css?family=Open+Sans:300,300italic,400,400italic,600,600italic,700,700italic,800,800italic);</style><linearGradient id="gradient-1" gradientUnits="userSpaceOnUse" x1="247.5469741821289" y1="1205.0458984375" x2="247.5469741821289" y2="1228.7755126953125">
                <stop offset="0" style="stop-color: #000000"/>
                <stop offset="1" style="stop-color: #000000"/>
              </linearGradient></defs>














<g transform="matrix(5.0386762619018555, 0, 0, 5.0386762619018555, -578.077880859375, -5725.90087890625)"><g id="g-1" transform="matrix(1, 0, 0, 1, -1.4210854715202004e-14, 1.5877185600361372)">
	<g id="g-2">
		<g>
			
		<path style="fill: rgb(156, 156, 156); fill-opacity: 1; stroke: rgb(0, 0, 0); stroke-opacity: 1; stroke-width: 0; paint-order: fill;" transform="matrix(1, 0, 0, 1, 0, -19.449548198517277)"/><path style="fill: rgb(156, 156, 156); fill-opacity: 1; stroke: rgb(0, 0, 0); stroke-opacity: 1; stroke-width: 0; paint-order: fill;" transform="matrix(1, 0, 0, 1, 0, -19.449548198517277)"/><path d="M 273.5704345703125 1239.363525390625" style="fill: rgb(156, 156, 156); fill-opacity: 1; stroke: rgb(0, 0, 0); stroke-opacity: 1; stroke-width: 0; paint-order: fill;"/></g>
	</g>
</g></g><path d="M 207.4939422607422 1207.1793212890625 L 260.26129150390625 1207.0482177734375 L 260.11126708984375 1214.8458251953125 L 206.2223663330078 1215.045654296875 L 200.4667205810547 1221.8389892578125" style="fill: rgb(154, 154, 154); fill-opacity: 1; stroke: rgb(0, 0, 0); stroke-opacity: 1; stroke-width: 0; paint-order: fill;" transform="matrix(6.449220310200661, 0, 0, 6.449220310200661, -639.973367112713, -7322.23692098843)"/><path d="M 207.4939422607422 1207.1793212890625 L 260.26129150390625 1207.0482177734375 L 260.11126708984375 1214.8458251953125 L 206.2223663330078 1215.045654296875 L 200.4667205810547 1221.8389892578125" style="fill: rgb(255, 255, 255); fill-opacity: 1; stroke: rgb(0, 0, 0); stroke-opacity: 1; stroke-width: 0; paint-order: fill;" transform="matrix(6.449218081863246, 0, 0, 6.449218081863246, -640.4189647436849, -7327.164321296399)"/><path d="M 2.359999895095825 18 L 2.359999895095825 0.8700008392333984 L 4.349999904632568 0.8700008392333984 L 4.349999904632568 18 L 2.359999895095825 18 ZM 20.79947280883789 18 L 20.79947280883789 0.8700008392333984 L 22.789472579956055 0.8700008392333984 L 22.789472579956055 16.200000762939453 L 30.349472045898438 16.200000762939453 L 30.349472045898438 18 L 20.79947280883789 18 ZM 36.012237548828125 18 L 36.012237548828125 0.8700008392333984 L 38.002235412597656 0.8700008392333984 L 38.002235412597656 18 L 36.012237548828125 18 ZM 55.240440368652344 0.8700008392333984 L 57.39044189453125 0.8700008392333984 L 51.21044158935547 18 L 49.240440368652344 18 L 43.100440979003906 0.8700008392333984 L 45.21044158935547 0.8700008392333984 L 49.15044021606445 11.949999809265137 C 49.60377502441406 13.223333358764648 49.963775634765625 14.463333129882812 50.23044204711914 15.670000076293945 C 50.510440826416016 14.40333366394043 50.877105712890625 13.139999389648438 51.330440521240234 11.880000114440918 L 55.240440368652344 0.8700008392333984 ZM 72.05099487304688 18 L 62.50099563598633 18 L 62.50099563598633 0.8700008392333984 L 72.05099487304688 0.8700008392333984 L 72.05099487304688 2.640000343322754 L 64.49099731445312 2.640000343322754 L 64.49099731445312 8.15999984741211 L 71.59099578857422 8.15999984741211 L 71.59099578857422 9.90999984741211 L 64.49099731445312 9.90999984741211 L 64.49099731445312 16.219999313354492 L 72.05099487304688 16.219999313354492 L 72.05099487304688 18 ZM 100.5954818725586 18 L 98.60548400878906 18 L 98.60548400878906 9.9399995803833 L 89.58547973632812 9.9399995803833 L 89.58547973632812 18 L 87.5954818725586 18 L 87.5954818725586 0.8700008392333984 L 89.58547973632812 0.8700008392333984 L 89.58547973632812 8.15999984741211 L 98.60548400878906 8.15999984741211 L 98.60548400878906 0.8700008392333984 L 100.5954818725586 0.8700008392333984 L 100.5954818725586 18 ZM 117.60728454589844 18 L 108.05728149414062 18 L 108.05728149414062 0.8700008392333984 L 117.60728454589844 0.8700008392333984 L 117.60728454589844 2.640000343322754 L 110.04727935791016 2.640000343322754 L 110.04727935791016 8.15999984741211 L 117.14727783203125 8.15999984741211 L 117.14727783203125 9.90999984741211 L 110.04727935791016 9.90999984741211 L 110.04727935791016 16.219999313354492 L 117.60728454589844 16.219999313354492 L 117.60728454589844 18 ZM 126.15050506591797 10.869999885559082 L 126.15050506591797 18 L 124.16050720214844 18 L 124.16050720214844 0.8700008392333984 L 128.8505096435547 0.8700008392333984 C 130.95716857910156 0.8700008392333984 132.51051330566406 1.2700004577636719 133.51051330566406 2.0699996948242188 C 134.5171661376953 2.876667022705078 135.0205078125 4.090000152587891 135.0205078125 5.710000038146973 C 135.0205078125 7.976666450500488 133.87051391601562 9.506667137145996 131.5705108642578 10.300000190734863 L 136.23049926757812 18 L 133.87051391601562 18 L 129.7205047607422 10.869999885559082 L 126.15050506591797 10.869999885559082 M 126.15050506591797 9.15999984741211 L 128.88050842285156 9.15999984741211 C 130.28717041015625 9.15999984741211 131.31716918945312 8.883333206176758 131.9705047607422 8.329999923706055 C 132.63050842285156 7.770000457763672 132.96051025390625 6.930000305175781 132.96051025390625 5.810000419616699 C 132.96051025390625 4.676666259765625 132.62384033203125 3.859999656677246 131.95050048828125 3.359999656677246 C 131.28384399414062 2.859999656677246 130.21383666992188 2.609999656677246 128.74050903320312 2.609999656677246 L 126.15050506591797 2.609999656677246 L 126.15050506591797 9.15999984741211 ZM 151.30174255371094 18 L 141.75173950195312 18 L 141.75173950195312 0.8700008392333984 L 151.30174255371094 0.8700008392333984 L 151.30174255371094 2.640000343322754 L 143.7417449951172 2.640000343322754 L 143.7417449951172 8.15999984741211 L 150.84173583984375 8.15999984741211 L 150.84173583984375 9.90999984741211 L 143.7417449951172 9.90999984741211 L 143.7417449951172 16.219999313354492 L 151.30174255371094 16.219999313354492 L 151.30174255371094 18 ZM 159.31497192382812 13.280000686645508 L 158.0849609375 13.280000686645508 L 157.48497009277344 0.8700008392333984 L 159.9149627685547 0.8700008392333984 L 159.31497192382812 13.280000686645508 M 157.27496337890625 16.760000228881836 C 157.27496337890625 15.693333625793457 157.74496459960938 15.15999984741211 158.68496704101562 15.15999984741211 C 159.1383056640625 15.15999984741211 159.48829650878906 15.296667098999023 159.73497009277344 15.569999694824219 C 159.98162841796875 15.84333324432373 160.10496520996094 16.239999771118164 160.10496520996094 16.760000228881836 C 160.10496520996094 17.260000228881836 159.97830200195312 17.64666748046875 159.72496032714844 17.920000076293945 C 159.47830200195312 18.200000762939453 159.1316375732422 18.34000015258789 158.68496704101562 18.34000015258789 C 158.27830505371094 18.34000015258789 157.94163513183594 18.21666717529297 157.67495727539062 17.969999313354492 C 157.40829467773438 17.72333335876465 157.27496337890625 17.31999969482422 157.27496337890625 16.760000228881836 Z" transform="matrix(1.4406431913375854, 0, 0, 1.4406431913375854, 740.6937866210938, 468.48876953125)" style="fill: rgb(51, 51, 51); white-space: pre;"/><path d="M 627.2985229492188 146.92166137695312" style="fill: rgb(255, 255, 255); fill-opacity: 1; stroke: rgb(0, 0, 0); stroke-opacity: 1; stroke-width: 0; paint-order: fill;" transform="matrix(0.7145624228059051, 0, 0, 0.7145624228059051, 93.64943142789602, 162.26410230499513)"/><path style="fill: rgb(255, 255, 255); fill-opacity: 1; stroke: rgb(0, 0, 0); stroke-opacity: 1; stroke-width: 0; paint-order: fill;"/><path d="M 955.4910888671875 380.49560546875" style="fill: rgb(255, 255, 255); fill-opacity: 1; stroke: rgb(0, 0, 0); stroke-opacity: 1; stroke-width: 0; paint-order: fill;"/><path d="M 733.0316772460938 468.30853271484375" style="fill: rgb(255, 255, 255); fill-opacity: 1; stroke: rgb(0, 0, 0); stroke-opacity: 1; stroke-width: 0; paint-order: fill;"/><path d="M 351.5332336425781 405.8638000488281" style="fill: rgb(255, 255, 255); fill-opacity: 1; stroke: rgb(0, 0, 0); stroke-opacity: 1; stroke-width: 0; paint-order: fill;"/><path style="fill: rgb(255, 255, 255); fill-opacity: 1; stroke: rgb(0, 0, 0); stroke-opacity: 1; stroke-width: 0; paint-order: fill;"/><path d="M 484.22833251953125 476.1141357421875" style="fill: rgb(255, 255, 255); fill-opacity: 1; stroke: rgb(0, 0, 0); stroke-opacity: 1; stroke-width: 0; paint-order: fill;"/></svg>