<?xml version="1.0" encoding="utf-8"?>
<svg id="master-artboard" viewBox="0 0 1400 980" version="1.1" xmlns="http://www.w3.org/2000/svg" x="0px" y="0px" width="1400px" height="980px" enable-background="new 0 0 1400 980">

<path d="M 903.4000244140625 235.89999389648438 L 842.0999755859375 210.89999389648438 L 780.7999877929688 235.89999389648438 L 842.0999755859375 114.69999694824219 Z" fill="#6BC6F0" transform="matrix(7.630315303802489, 0, 0, -7.630315303802489, -5735.350097656249, 1826.7331542968748)" style="fill: rgb(197, 201, 201);"/><path fill="#733678" d="M903.4,237.9c-0.3,0-0.5,0-0.7-0.1l-60.6-24.7l-60.6,24.7c-0.8,0.3-1.6,0.1-2.2-0.5&#10;&#9;&#9;&#9;c-0.6-0.6-0.7-1.5-0.3-2.2l61.3-121.2c0.3-0.7,1-1.1,1.8-1.1s1.4,0.4,1.8,1.1L905.2,235c0.4,0.7,0.2,1.6-0.3,2.2&#10;&#9;&#9;&#9;C904.5,237.7,904,237.9,903.4,237.9z M842.1,208.9c0.3,0,0.5,0,0.7,0.1l56.4,23l-57.2-113l-57.2,113l56.4-23&#10;&#9;&#9;&#9;C841.6,209,841.9,208.9,842.1,208.9z" transform="matrix(7.630315303802489, 0, 0, -7.630315303802489, -5735.350097656249, 1826.7331542968748)" style="fill: rgb(122, 122, 122);"/><path d="M 842.0999755859375 199.60000610351562 L 800.2999877929688 216.60000610351562 L 842.0999755859375 134 Z" fill="#BCE6FB" transform="matrix(7.630315303802489, 0, 0, -7.630315303802489, -5735.350097656249, 1826.7331542968748)" style="fill: rgb(255, 255, 255);"/><path fill="#733678" d="M800.3,218.6c-0.5,0-1.1-0.2-1.5-0.6c-0.6-0.6-0.7-1.5-0.3-2.2l41.8-82.6c0.4-0.8,1.3-1.2,2.2-1&#10;&#9;&#9;&#9;c0.9,0.2,1.5,1,1.5,1.9v65.6c0,0.8-0.5,1.5-1.2,1.8l-41.8,17C800.8,218.6,800.6,218.6,800.3,218.6z M840.1,142.3l-35.6,70.5&#10;&#9;&#9;&#9;l35.6-14.5V142.3z" transform="matrix(7.630315303802489, 0, 0, -7.630315303802489, -5735.350097656249, 1826.7331542968748)" style="fill: rgb(255, 255, 255);"/>
</svg>