<?xml version="1.0" encoding="utf-8"?>
<svg id="master-artboard" viewBox="0 0 1400 980" version="1.1" xmlns="http://www.w3.org/2000/svg" x="0px" y="0px" enable-background="new 0 0 1400 980" width="1400px" height="980px"><rect id="ee-background" x="0" y="0" width="1400" height="980" style="fill: white; fill-opacity: 0; pointer-events: none;"/>
<g transform="matrix(1.3231878280639648, 0, 0, 1.3231878280639648, -816.2103271484375, 85.99124145507812)">
			<g>
				
			</g>
			<g>
				<g transform="matrix(1.1882989406585691, 0, 0, 1.1882989406585691, -233.1516876220703, -42.36270719038957)">
					<g>
						<path d="M 1153.199951171875 278.5 L 1140.4000244140625 283.79998779296875 L 1150.699951171875 409.6000061035156 L 1238.199951171875 254.10000610351562 Z" fill="#BE202E" style="fill: rgb(153, 153, 153);"/>
					</g>
					<g>
						<path d="M 1137.199951171875 270.70001220703125 L 1080.9000244140625 241.3000030517578 L 1150.699951171875 409.6000061035156 L 1155.300048828125 291.29998779296875 Z" fill="#ED4A35" style="fill: rgb(167, 167, 167);"/>
					</g>
					<g>
						<path d="M 1080.9000244140625 241.3000030517578 L 1164.800048828125 213.3000030517578 L 1238.199951171875 254.10000610351562 L 1155.300048828125 291.29998779296875 Z" fill="#EB2227" style="fill: rgb(149, 148, 144);"/>
					</g>
					<g>
						<path d="M 1101.0999755859375 242.39999389648438 L 1163.300048828125 223.1999969482422 L 1221.199951171875 251.89999389648438 L 1155.800048828125 281.70001220703125 Z" fill="#ED4A35" style="fill: rgb(169, 169, 169);"/>
					</g>
					<g>
						<path d="M 1163.300048828125 223.1999969482422 L 1101.0999755859375 242.39999389648438 L 1108 247.39999389648438 L 1162.4000244140625 228.89999389648438 L 1211.800048828125 256.20001220703125 L 1221.199951171875 251.89999389648438 Z" fill="#BE202E" style="fill: rgb(110, 110, 110);"/>
					</g>
				</g>
				
			</g>
		</g>
<defs><style id="ee-google-fonts">@import url(https://fonts.googleapis.com/css?family=Carme:400);</style></defs><path d="M 3.609999895095825 30 L 3.609999895095825 0.5900001525878906 L 7.380000114440918 0.5900001525878906 L 7.380000114440918 30 L 3.609999895095825 30 ZM 24.25935935974121 30 L 24.25935935974121 0.5900001525878906 L 28.02935791015625 0.5900001525878906 L 28.02935791015625 27.229999542236328 L 42.28936004638672 27.229999542236328 L 42.28936004638672 30 L 24.25935935974121 30 ZM 47.553977966308594 30 L 47.553977966308594 0.5900001525878906 L 51.323978424072266 0.5900001525878906 L 51.323978424072266 30 L 47.553977966308594 30 ZM 56.61509323120117 0.5900001525878906 L 60.3450927734375 0.5900001525878906 L 68.88509368896484 25.079999923706055 L 77.37509155273438 0.5900001525878906 L 81.14509582519531 0.5900001525878906 L 70.76509094238281 30 L 66.9950942993164 30 L 56.61509323120117 0.5900001525878906 ZM 86.41252136230469 30 L 86.41252136230469 0.5900001525878906 L 105.15251922607422 0.5900001525878906 L 105.15251922607422 3.280000686645508 L 90.1825180053711 3.280000686645508 L 90.1825180053711 12.610000610351562 L 102.63252258300781 12.610000610351562 L 102.63252258300781 15.300000190734863 L 90.1825180053711 15.300000190734863 L 90.1825180053711 27.309999465942383 L 105.15251922607422 27.309999465942383 L 105.15251922607422 30 L 86.41252136230469 30 Z" transform="matrix(1.3139448165893555, 0, 0, 1.198994517326355, 557.2890014648438, 318.4271240234375)" style="fill: rgb(255, 255, 255); white-space: pre;"/><path d="M 3.609999895095825 30 L 3.609999895095825 0.5900001525878906 L 7.380000114440918 0.5900001525878906 L 7.380000114440918 13.920000076293945 L 22.09000015258789 13.920000076293945 L 22.09000015258789 0.5900001525878906 L 25.8799991607666 0.5900001525878906 L 25.8799991607666 30 L 22.09000015258789 30 L 22.09000015258789 16.689998626708984 L 7.380000114440918 16.689998626708984 L 7.380000114440918 30 L 3.609999895095825 30 ZM 33.078102111816406 30 L 33.078102111816406 0.5900001525878906 L 51.81809997558594 0.5900001525878906 L 51.81809997558594 3.280000686645508 L 36.84810256958008 3.280000686645508 L 36.84810256958008 12.610000610351562 L 49.29810333251953 12.610000610351562 L 49.29810333251953 15.300000190734863 L 36.84810256958008 15.300000190734863 L 36.84810256958008 27.309999465942383 L 51.81809997558594 27.309999465942383 L 51.81809997558594 30 L 33.078102111816406 30 ZM 57.2144660949707 30 L 57.2144660949707 0.5900001525878906 L 66.54446411132812 0.5900001525878906 C 69.37779998779297 0.5900001525878906 71.77780151367188 1.4799995422363281 73.74446105957031 3.260000228881836 C 75.71113586425781 5.033332824707031 76.69446563720703 7.266666412353516 76.69446563720703 9.959999084472656 C 76.69446563720703 11.973333358764648 76.13113403320312 13.753334045410156 75.00446319580078 15.300000190734863 C 73.87779998779297 16.84000015258789 72.37113189697266 17.946666717529297 70.48446655273438 18.619998931884766 L 77.12446594238281 30 L 73.35446166992188 30 L 67.11446380615234 19.290000915527344 L 60.984466552734375 19.290000915527344 L 60.984466552734375 30 L 57.2144660949707 30 M 60.984466552734375 16.529998779296875 L 66.54446411132812 16.529998779296875 C 68.33779907226562 16.529998779296875 69.8478012084961 15.90999984741211 71.074462890625 14.670000076293945 C 72.30780029296875 13.430000305175781 72.92446899414062 11.860000610351562 72.92446899414062 9.959999084472656 C 72.92446899414062 8.059999465942383 72.30780029296875 6.489999771118164 71.074462890625 5.25 C 69.8478012084961 4.003334045410156 68.33779907226562 3.3799991607666016 66.54446411132812 3.3799991607666016 L 60.984466552734375 3.3799991607666016 L 60.984466552734375 16.529998779296875 ZM 82.39666748046875 30 L 82.39666748046875 0.5900001525878906 L 101.13666534423828 0.5900001525878906 L 101.13666534423828 3.280000686645508 L 86.16666412353516 3.280000686645508 L 86.16666412353516 12.610000610351562 L 98.61666870117188 12.610000610351562 L 98.61666870117188 15.300000190734863 L 86.16666412353516 15.300000190734863 L 86.16666412353516 27.309999465942383 L 101.13666534423828 27.309999465942383 L 101.13666534423828 30 L 82.39666748046875 30 ZM 107.12303161621094 30 L 107.12303161621094 25.799999237060547 L 111.33303833007812 25.799999237060547 L 111.33303833007812 30 L 107.12303161621094 30 M 107.12303161621094 21.549999237060547 L 107.12303161621094 0.5900001525878906 L 111.33303833007812 0.5900001525878906 L 111.33303833007812 21.549999237060547 L 107.12303161621094 21.549999237060547 Z" transform="matrix(1.2165558338165283, 0, 0, 1.2165558338165283, 710.932373046875, 316.9916076660156)" style="fill: rgb(255, 255, 255); white-space: pre;"/></svg>