<?xml version="1.0" encoding="utf-8"?>
<svg id="master-artboard" viewBox="0 0 150 150" version="1.1" xmlns="http://www.w3.org/2000/svg" x="0px" y="0px" style="enable-background:new 0 0 1096 780;" width="150px" height="150px" xmlns:xlink="http://www.w3.org/1999/xlink"><rect id="ee-background" x="0" y="0" width="150" height="150" style="fill: white; fill-opacity: 0; pointer-events: none;"/>

<radialGradient id="SVGID_1_" cx="737.7383" cy="742.7573" r="737.6611" gradientTransform="matrix(0.7429 0 0 0.5271 -6.580000e-02 -2.6803)" gradientUnits="userSpaceOnUse">
		<stop offset="0" style="stop-color:#E6DDD7"/>
		<stop offset="0.472" style="stop-color:#E4DAD4"/>
		<stop offset="0.8362" style="stop-color:#DED2CA"/>
		<stop offset="1" style="stop-color:#DACCC3"/>
	</radialGradient><path class="st1" d="M494.1,465.3c2.7-0.3,3.2-2.8,4.5-4.5c3.5-1.7,6.8-3.6,8.5-7c2.3,0.2,2.8-1.6,4.5-2c2.1,0.9,5.6,0.4,6.5,2.5&#10;&#9;&#9;c-2.7,5.7-10.1,6.7-13.1,12c0,2.5,0.9,4.2,0.5,7c2.1,3.3,1.3,7.8,2,12c0.6,3.7,3.4,7.6,1,10.5c-2.7,1.3-5.5-0.2-7-1.5&#10;&#9;&#9;c-0.8-7.5-1.6-16.9-3.5-25.6c-2.3,0.9-3.3,3-5.5,4c-2.8,5.8-0.8,16.3-6,19.6c-7.1-1.7-1.4-10.8-2-16.6c3.2-9,3-21.4,8-28.6&#10;&#9;&#9;C502,448.3,492.6,460.3,494.1,465.3L494.1,465.3z M449.9,456.3L449.9,456.3c0.1,4.3,1.1,7.6,1.5,11.5c6.6,1.1,13.5-1.5,12.6-9.5&#10;&#9;&#9;C462,454.8,453.7,453.6,449.9,456.3z M471.5,464.8c-1.4,2.6-4.1,3.9-5.5,6.5c2.2,7,7.5,10.9,9,18.6c-0.7,1-1,2.3-2.5,2.5&#10;&#9;&#9;c-8.2-1.5-6.4-17.6-14.6-18.1c-2-0.1-2.6,0.8-4.5,1.5c-0.9,6.8,4.4,13.1,2,19.1c-0.7,0.8-2.6,0.4-4,0.5c-3.5-5.2-2.1-15.3-5.5-20.6&#10;&#9;&#9;c-0.7-7.5-1.8-14.6-3.5-21.1c0.6-1,1.2-2.1,2-3c6.5-1.1,13.4-4.2,19.1-1.5C467.6,451.2,471.6,458.2,471.5,464.8z M411.3,473.9&#10;&#9;&#9;L411.3,473.9c0,2,0,4,0,6c2.4,4.7,4.9,9.1,7,14.1c2.1,1.7,4.6,3.1,6,5.5c6.7,1.7,10.1-2.1,9-9.5c-0.8-1.2-1.8-2.2-2.5-3.5&#10;&#9;&#9;c-0.9-7.3-6.7-9.7-9-15.6C417.3,469.6,413,470.9,411.3,473.9z M417.8,463.8c3.5-0.8,6.7,3,10,4c3.1,4.8,5,10.7,9.5,14.1&#10;&#9;&#9;c0.4,3.4,2.2,5.5,3.5,8c2.3,14.4-14.1,19-23.6,12.6c-1.1-3.7-3.3-6.4-6-8.5c-0.2-3.7-2.5-5.2-4.5-7c-0.1-2.4-1.6-3.4-2.5-5&#10;&#9;&#9;c-0.4-2.6-0.7-5.4-0.5-8.5C406.5,468.3,410.1,464,417.8,463.8z M414.8,518.6c-0.5,1.3-1.4,2.2-3,2.5c-7.9-3.1-10.6-11.5-21.1-12&#10;&#9;&#9;c-0.6-0.8-1.4-1.2-2-2c-6-0.3-10.4-2.3-14.6-4.5c-0.7-4.9,6.7-4,8-1.5c3.4,0.6,6.5,1.6,10,2c-0.2-3.2-2.5-8.5-6-10&#10;&#9;&#9;c0.5-2.7-0.9-3.5-1.5-5c0.6-1.7,1.5-3.2,3.5-3.5c3,0.2,2.7,3.7,5,4.5c2.2,5.9,5.4,10.7,8,16.1C405.3,509.9,410.4,513.9,414.8,518.6&#10;&#9;&#9;z M572.4,489.4c1.1,4.1-1.1,5.4-2.5,8c-0.6,1.1-0.7,3.1-1.5,4.5c-0.7,1.3-2,1.9-2.5,3c-0.4,0.9-0.1,2.3-0.5,3&#10;&#9;&#9;c-2.3,4.3-6,7.3-7.5,11.5c2.2,0.2,4.4-3.5,7.5-4c0.8-3.9,3.5-5.9,7-7c1.9-2.8,4.9-4.5,7.5-6.5c2,0.7,4.3,1.1,5,3&#10;&#9;&#9;c-0.3,5.1-5,5.7-7.5,8.5c-1.3,1.9-3.2,3.1-4.5,5c-7.6,2.5-10.9,9.2-18.1,12c-1.6,0.6-1.6,2.8-3.5,3c-4.7,0-6.2-3.2-6-8&#10;&#9;&#9;c3.8-2.5,5.4-7.4,8.5-10.5c-0.5-1.5-0.5-1.5,0-3c3.3-2.9,3.7-5.6,5.5-10c-3.6-0.3-7.6,3.4-9,7c-5.1,1.5-6.8,6.3-11,8.5&#10;&#9;&#9;c-2-0.1-3.4-0.9-5-1.5c-0.4-2.2,0.7-3,0.5-5c6-3.4,10.3-8.4,16.6-11.5c3-5.7,7.7-9.7,14.1-12c0.5,0,0.4-0.6,0.5-1&#10;&#9;&#9;C569.1,486.4,570.1,488.6,572.4,489.4z M516.2,500c0-2.3,2.2-2.5,3-4c-0.6-1.4-0.6-3.5-0.5-5.5c4.9-2.9,9.1,0.3,9,4.5&#10;&#9;&#9;C527.7,499.3,518.6,505.9,516.2,500z M515.7,546.2L515.7,546.2c2,1,4.2,0.1,5.5-1c0-2-0.4-3.7-2-4&#10;&#9;&#9;C518.8,543.6,515.9,543.5,515.7,546.2z M525.3,529.6c4.1,4.6-2.5,17.3,7,17.1c0.8,3.8-1.7,4.3-4.5,4.5c0.3,3.2,0.6,4.4,1,8&#10;&#9;&#9;c-1.5,1.9-4.8,1.6-6.5,0c-0.2-2.5,0.5-4.7-1-7.5c-4-1.1-11.7,1.4-15.6-1c2.3-8.9,10.2-12.3,13.6-20.1&#10;&#9;&#9;C521,530,522.6,529.2,525.3,529.6z M457,531.6c-0.1,0.6,0.1,0.9,0.5,1c0.4,6.1-7.2,4.2-12.6,4.5c-1,1.8-0.3,5.4-0.5,8&#10;&#9;&#9;c1.5,0.2,4.6,0,6.5,1c0.3,1.2,0.7,2.3,0.5,4c-1.7,0.8-3.2,1.8-6,1.5c-1.3,1.1-1,3.7-1,6c3.6,2.3,12.1-2.1,13.1,3.5&#10;&#9;&#9;c0.2,1.6-1.4,1.3-1.5,2.5c-5.8-1.2-11.8,0.3-16.1,0c0.3-5-3-11.5,0.5-14.6c0.1-2-2.1-1.5-2-3.5c1.1-5.5-2-9.9,0.5-14.6&#10;&#9;&#9;C444.9,530.5,452.1,529.5,457,531.6z M398.2,544.7c0.4,2.7-0.8,3.9-1.5,5.5c-11.4,0-19.2-1.3-32.6-1c0,2.2,3.1,1.2,3,3.5&#10;&#9;&#9;c6.4,0.3,9,4.4,15.6,4.5c3.5,2.9,9.3,3.4,12,7c-0.7,1.7-0.9,3.8-2.5,4.5c-12.9-0.2-27.7-2.3-42.2-4.5c0-1.5,0-3,0-4.5&#10;&#9;&#9;c3.5-1.3,7.4,0.4,10,1.5c10.3-0.9,15,5.5,24.6,2.5c-3.6-4.4-11.8-4.2-16.6-7.5c-1.4,0.1-1.4-1.2-1.5-2.5c-1.3,0.4-2.7,0.7-4.5,0.5&#10;&#9;&#9;c-2.7-2.3-7.9-2.2-9.5-5.5c0.2-2.3,1.6-3.4,3-4.5c9,0.9,19.3,0.8,27.6,1c-8.6-3.5-17.9-6.2-27.1-9c-0.5-3.5,0.9-5.1,3.5-5.5&#10;&#9;&#9;c8.9,6,24,5.8,32.6,12C395.4,542.2,396.8,543.4,398.2,544.7z M479.1,542.2c-3.9,0-4.7-3-6.5-5c-1.7,0-3.3,0-5,0&#10;&#9;&#9;c-4.3,1.9-1.9,10.5-2.5,16.1c1,2.4,2.6,4.1,5,5c4.5-0.4,6.5-5.8,11-4.5c1.7,9.8-14.4,10.3-19.6,4.5c-0.8-5.3-3.9-11.5-3-17.6&#10;&#9;&#9;c0.7-4.8,3.8-7.3,6.5-10c4.5,0.5,7.3-0.3,11.5,0.5C478.7,533.5,482.5,538.8,479.1,542.2z M420.8,560.7c1.7-1.5,3.4-3,7-2.5&#10;&#9;&#9;c3.8-2.4,0.3-10.6,2.5-16.1c-1.2-4.8-9.4-2.7-12-6c0.7,3.2,1,6.7,2,9.5c-3.3,4.7-2,11.3,0,17.1c-0.7,0.5-1.5,0.8-2,1.5&#10;&#9;&#9;c-5.2-2.3-2.3-12.8-4.5-18.1c1.2-3.7,1.4-7.2-0.5-10.5c0.6-3.5,5.1-4.5,7.5-2c5.1-3.6,13.2-0.7,13.6,5c-1.5,5.6,3.2,11.7-1,15.6&#10;&#9;&#9;c-0.1,1.6,1.3,1.7,1,3.5C434.7,563.1,423.6,567.8,420.8,560.7z M552.4,540.1c4.5-3.2,8.8-2.8,8.5,2&#10;&#9;&#9;C560.6,547.5,551,548.8,552.4,540.1z M599.1,538.1c3.2,2.7,1.8,7.7-1.5,9c-6.8,0.9-10.2,5.2-16.1,7c5.2,5.6,16.2,1.6,22.1,3.5&#10;&#9;&#9;c0.5,1.3,1.2,2.5,1,4.5c-0.7,1-1.6,1.8-2.5,2.5c-7-0.2-12-2.4-16.6-5c-8.1,0-17.6,1.4-25.6,3c-1.5-1.4-2.2-5.3-0.5-7&#10;&#9;&#9;c1.8,0.2,4.4-0.4,5.5,0.5c5-2.2,8.8-2.7,13.1-5c2.5-1.4,4.1-3.9,6.5-5.5c1.6-1.1,4.2-1.7,6-3C593.6,540.4,594.1,538,599.1,538.1z&#10;&#9;&#9; M568.4,577.8c-1.7,2.2-5,1.3-6-1C562.9,571.9,568.7,573,568.4,577.8z M450.9,579.3c0.3,2.2-0.9,2.8-2,3.5c-3.5-2.2-6.7-2.2-11-1.5&#10;&#9;&#9;c-1.1-3.4,3.7-2.9,4.5-1.5C443.6,577.4,448.2,578.3,450.9,579.3z M391.2,578.8c3.9,0.5,1.3,7.4,4,9c-1,6.3,2.8,10.1,1,15.6&#10;&#9;&#9;c-3.5,0.6-6,2.1-9.5,0.5c-1.7,3.6-4.7-0.1-6.5,3c-4.6-1.1-9.9,1.4-13.6,1c-2.8,1.6-5.8,2.9-10.5,2.5c-3-4.9-0.9-14.8-5-18.6&#10;&#9;&#9;c1.3-2.4,0.4-7,5-6c1.9,6.2,2.1,14,3.5,20.6c4.7-0.6,9.2-1.5,12-4c-0.5-4.6-0.9-9.4-1.5-14.1c1.5-0.4,2.2-1.5,4.5-1&#10;&#9;&#9;c1.7,4.1,1.4,10.3,2.5,15.1c4.4-2,10.2,0.5,13.6-2.5c1.3-6.4-1-13.3-2-19.1C389.4,580.1,389.5,578.6,391.2,578.8z M423.8,581.3&#10;&#9;&#9;c-0.6,1.7-4,0.7-5.5,1.5c-2.2,1.3-4.7,2.4-7,3.5C407.5,580.8,420.3,576.5,423.8,581.3z M489.6,580.3c-0.3,3.9-6.6,2.1-9,1.5&#10;&#9;&#9;C480.2,577.9,487.9,579,489.6,580.3z M485.1,596.4c-2.2,0-0.7,3.6-2.5,4c-3.5-0.6-4.1-7.8-2-9.5c5,2.3,13.9,2.2,15.6-3&#10;&#9;&#9;c0.1-4-5.6-4.7-4.5-8c2.1-1.4,4.3,0.5,6,1c3.7,5.4,0.7,14-4.5,15.1C490.4,596,487.1,595.5,485.1,596.4z M508.7,583.3&#10;&#9;&#9;c1.5,2.5,2.9,5.1,3.5,8.5c3.2,1.3,4.7,4.3,5.5,8c2.6-1,1.1-6.3,5.5-5.5c0.9,1.1,0.3,3.7,0.5,5.5c3.2-0.3-0.2-7.2,3.5-7&#10;&#9;&#9;c3.6,3.2-0.5,10.7,1,16.1c-3.9,1.6-2.8-5.3-4.5-7.5c-2.9,1.7-3.1,6-5.5,8c-4-1.6-4.3-7.1-7-10c-1.1,2.4-1.8,5.2-5,5.5&#10;&#9;&#9;c-2.4-5.9-1-16.3,0-21.6C507,583.3,507.8,583.3,508.7,583.3z M439.4,600.9c-1-2.1-4.3-4-2-6.5c1.7-1.2,2.7,1.7,4.5,2&#10;&#9;&#9;c3.6-0.2,6.4-2.3,6-5c-1.2-2.3-5.1-1.9-5.5-5c-0.1-0.9,0.6-1.1,0.5-2C454.8,584.5,454.8,604.6,439.4,600.9z M527.8,585.3&#10;&#9;&#9;c0.4,1.9-2.4,1.9-2,0C526.8,584.5,526.4,585.4,527.8,585.3z M456.5,586.8c0.1,4.8,0.2,10.4,4.5,10.5c4.7,0.2,3.2-4.9,5-9&#10;&#9;&#9;c6.2,1.3,1.6,10.8-2,11.5c-9,1-11.7-7-9.5-13.1C455.1,586.8,455.8,586.8,456.5,586.8z M525.8,590.4c0.4,3.1-2.9,3.6-4.5,2&#10;&#9;&#9;C521.5,590.5,524.1,589.2,525.8,590.4z M422.3,592.4c0.7,5.4-5.9,7.7-7.5,12.6c1.3,3,8.9-0.2,10,3c-2.4,2.8-8.9,0.2-13.6,1.5&#10;&#9;&#9;c-0.5-0.7-0.8-1.5-1.5-2c0.6-6.9,6.4-8.7,8.5-14.1C420,593.3,420.2,591.9,422.3,592.4z M596,622c-5.7,0.2-9.3-1.8-12-4.5&#10;&#9;&#9;c-6.5-1.5-11-5.1-18.1-6c-2.1-2.6-8-1.4-7-7c11.3-0.3,19.3,7.1,29.6,9.5c1.2-2.9-1.6-4.3-1-7c1.1-5.3,6-2.8,8.5,1&#10;&#9;&#9;C594.4,613,603.2,618.7,596,622z M469,608.4c-1.7,1.1-5.8-0.1-7,1.5c-3.4-1.1-7.5,1.2-9.5-1.5c4.3,0.1,6.7-3.2,11-1.5&#10;&#9;&#9;C466,607,468.8,605.3,469,608.4z M485.1,607.4c0.3,2.2-3.2,2.5-4.5,1.5C479.9,605.4,483.7,606.5,485.1,607.4z M387.2,645.6&#10;&#9;&#9;c8.6-4.9,16.1-11,24.1-16.6c1.9,0.3,2.8,1.6,2.5,4c-4.9,3.1-8.5,7.6-14.1,10c-3.3,4.1-8,5.9-13.1,9c-2.1,1.3-3.9,3.9-7,3&#10;&#9;&#9;c-4.2-7.9,6.1-12.9,7.5-20.1c1-0.3,1.6-1.1,2.5-1.5c0.8-4.6,4.1-6.6,5.5-10.5c-4.2,0.8-9.5,4.9-12.6,8.5c-5.4,1.5-7.5,6.2-12.6,8&#10;&#9;&#9;c-0.5-0.7-1.3-1-2-1.5c-0.7-4.4,3.8-5.3,6-7c2.5-1.9,4.7-4.2,7-6c1.2-0.2,2.1-0.6,3-1c1.6-2.6,5.6-2.7,6.5-6c3.2-1,6-2.3,8-4.5&#10;&#9;&#9;c0.5,0,1,0,1.5,0c6.5,4.8,0.7,9-2.5,14.6c-0.9,1.5-1.6,3-2.5,4.5C392.8,636.3,390.1,642.3,387.2,645.6z M560.9,620.5&#10;&#9;&#9;c-3.7,3.1-11,2.7-11.5,9c1.3,5.4,4.9,8.5,11.5,8.5c4.5-2,3.6-9.4,6.5-13.1c5.5-0.5,6.5,3.6,11,4c2.6,3,6.8,4.6,9.5,7.5&#10;&#9;&#9;c0,5.7-5.3,6-5.5,11.5c-1.3,0-1.1,1.6-2.5,1.5c-0.4,3.1-1.8,5.2-4.5,6c-2.5-0.5-3.8-2.4-4-4c-0.5-4.7,7.9-7.6,7-13.6&#10;&#9;&#9;c-1.1-2.4-4.3-2.7-6-4.5c-3.4,5.8-6.9,11.9-14.6,11.5c-3.3-0.2-10-4.5-12-7c-3.9-4.7-3.2-11.4,0.5-17.6&#10;&#9;&#9;C550.5,619.9,558.8,614,560.9,620.5z M489.6,626.5c-1.3,3.3-9,2.4-12,2.5c-1.7,0.2-5.3,1.5-5.5-1c-0.3-2.5,3.2-1.2,5-1.5&#10;&#9;&#9;C480.7,626.4,486.9,624.2,489.6,626.5z M470,628c-0.8,0.8-2.9,0.7-2.5-1C468.3,626.2,470.4,626.3,470,628z M531.8,664.2&#10;&#9;&#9;c5.9,2.8,10.8,8,9.5,15.6c-2,12.2-25.6,14.6-23.6-1c5.2-0.5,4.6,4.2,8,5c2.6,0.6,6.5-1,7.5-2.5c2.3-3.4,0.1-7.8-2-11&#10;&#9;&#9;c-4.7-1.6-8.3,1-12-1c-0.5-5.1,4.8-4.5,6-8c0.4-3.8,0.3-7-3.5-8.5c-3,0.4-4.4,2.2-6,4c0.3,2.6-0.6,6.7-4,7&#10;&#9;&#9;c-5.5-2.9-2-11.4,0.5-14.6C522.4,643.7,536.9,651.2,531.8,664.2z M447.4,654.1c-0.4,2.9-1.4,5.3-3,7c-0.8,6.7-3.7,11.3-6,16.6&#10;&#9;&#9;c-0.6,3.2-1.7,6-3,8.5c-1.4,2.3-1.4,6-4.5,6.5c-3.7-0.5-0.7-5.1-1-8c4.8-6.8,7.4-15.7,10.5-24.1c-2.5-0.3-6.4,1.1-9-1&#10;&#9;&#9;c-0.5-5.9,5.1-4.8,9.5-4.5C442.3,653.6,445.3,652.1,447.4,654.1z M505.7,667.2c-1.3,2.6-1,6.7-3.5,8c4.8,3.4,8.9,7.5,8.5,16.1&#10;&#9;&#9;c-2.9,7.4-15.1,11.2-22.6,5.5c-0.7-2.8-3.9-6.8-1.5-9.5c5.3-0.1,5.7,7.1,10.5,7c2.9-0.1,4-2.7,6.5-4.5c-0.6-3.3,0.5-6.8-2-9&#10;&#9;&#9;c-3.9-0.6-8.5-0.6-11.5-2c-1.3-2.2,1.6-1.7,1-4.5c3.4,0.5,6-1.7,7.5-4.5c0.5-3.7-1.1-5.2-2.5-7c-3-0.2-5.7,0-7.5,1&#10;&#9;&#9;c-1.6,2.5-1.6,8.5-6.5,6c-1.3-5.5,2.6-8.3,4.5-12C496.1,654.2,503.3,660.4,505.7,667.2z M470,669.2L470,669.2&#10;&#9;&#9;c-1.6-9.5-16.1-6.3-15.6,2c0.3,4.5,4.5,5.4,10,7c1.1-1.6,2.6-2.7,5-3C469,672,470.4,671.3,470,669.2z M449.9,686.2&#10;&#9;&#9;c5,0.9,4.1,7.7,8.5,9c6.9,0.1,9-4.7,9-11.5c-8.6-0.1-13.6-3.8-17.1-9c1.3-3.8,0.2-7.6,1.5-10.5c1-2.3,5.8-6.1,8.5-6.5&#10;&#9;&#9;c3.2-0.5,6.1,1.6,9.5,1.5c8.4,8,2.3,26.6,0,37.2c-2.5,1-4.4,2.6-6.5,4C453.7,701.6,445.9,693.9,449.9,686.2z M627.7,566.3&#10;&#9;&#9;c5.8,2.7,2.3,12.3,1.5,16.6c-3,1-1.4-2.6-4-2c-0.5-4.8-1.5-6.3-1-10c1.4,0,1,0.8,2,0C625.1,568.2,626.6,567.8,627.7,566.3z&#10;&#9;&#9; M628.7,563.2c-3.1-1.3-4.1-1.5-7,0c0.1-2.1-1.5-2.6-2-4c-0.2-1.9,1.8-1.6,2.5-2.5c-0.1-3.5-0.2-6.8-1.5-9c-1.4-1.1-3.5-1.5-5.5-2&#10;&#9;&#9;c0.1-4.5-3.1-5.6-3.5-9.5c-1.2-0.7-2.8-0.8-4-1.5c-0.2-3.6-2.2-5.5-2.5-9c-2.3-4.2-6.5-6.5-6-13.6c-2.1-5-5.8-8.2-7-14.1&#10;&#9;&#9;c-3-5.2-7.6-8.8-9.5-15.1c-6.8-6.1-11.6-14.2-20.6-18.1c-1.6-5.1-7.8-5.6-10.5-9.5c-1.8,0.1-3.2-0.1-4-1c-2.5-1.9-4.7-4-7-6&#10;&#9;&#9;c-9.6-2.1-17-9.2-27.6-10.5c-1.5-0.2-3.1,0.3-4.5,0c-2-0.4-3.5-2-5.5-2.5c-7.3-2-15.4,0.3-23.6-2c-3.7,1.5-7.8,0.1-13.1,0.5&#10;&#9;&#9;c-5.8,1.6-15,2.4-20.6,2.5c-7.5,3.6-17.3,4.8-23.6,9.5c-16,3.4-25,13.9-36.7,21.6c-2.1,2.9-3.9,6.1-7.5,7.5&#10;&#9;&#9;c-4,5.8-9.1,10.3-13.6,15.6c-3,7.7-7.6,13.8-11.5,20.6c0.4,1.9-0.9,2.2-0.5,4c-3.1,3.2-3.3,7.9-5,12c-1.1,2.6-3.2,4.8-4,7.5&#10;&#9;&#9;c-1.7,5.6-1,11.7-4.5,16.6c0.3,9.8-1.6,18.8-1.5,30.1c0,5.3,1.1,11.4,2,16.6c0.7,3.8,1.6,8.2,2.5,12c1.4,6,3.3,10.9,5.5,16.6&#10;&#9;&#9;c1.1,2.9,2.3,5.9,3.5,8.5c1.9,4.4,5,7.3,6.5,12.6c4.3,7.7,10,14.1,15.1,21.1c4.4,2,5.6,7.1,10.5,8.5c0.2,1.6,1.5,2.2,2,3.5&#10;&#9;&#9;c7.6,4.9,15,10.1,21.6,16.1c1.9-0.4,2.4,0.6,4,0.5c2.5,2.7,6.8,3.6,9.5,6c12.6,2.8,21.1,9.7,36.6,9.5c5.8,2.7,12.8,1.5,20.1,2&#10;&#9;&#9;c1.6,0.2,2-0.7,3-1c7.5,2.1,16.6-2.5,23.1,0c1.7-0.1,1.5-2.2,3-2.5c2.7-0.1,3-0.4,5.5,0c11.4-5.2,23.9-9.2,35.1-14.6&#10;&#9;&#9;c8.8-5.2,16.9-11.2,25.6-16.6c3.5-5.4,7.5-10.3,13.1-13.6c1.7-4.5,4.7-7.7,7.5-11c0.6-3.4,1.9-6.1,4-8c-0.4-4.4,3.5-8,4.5-12.6&#10;&#9;&#9;c3.2-1.7,4.4-5.3,6.5-8c-0.4-1.3-0.7-2.7-0.5-4.5c0.7-2,1.9-3.4,2.5-5.5c3.4,0.6,1.5-1,2.5-2.5c2.2-0.5,1.6,1.7,3.5,1.5&#10;&#9;&#9;c-0.1-2.1-2.7-1.7-3-3.5c1.2-2.2,0-4.5-1-6c1.5-3.9,4.7-8.6,9-8c1.6-1.3,2.5-3.2,4.5-4c1.4-0.3,1,1,1.5,1.5c1.1-0.4-0.1-3.1,2-2.5&#10;&#9;&#9;c1.8,3.4-1,7.2-1.5,11.5c-0.4,3.3,0.1,5.2-1,8c-1.1,3-2.5,9.8-5.5,11.5c0,1.2,0,2.3,0,3.5c-6,7.8-8.4,19-17.6,23.6&#10;&#9;&#9;c-1.2,3.2-3.6,5.1-4.5,8.5c-9.4,7-15.1,17.7-25.1,24.1c-0.6,2.3-2.5,3.2-3.5,5c-4.2,2.1-7.5,5.2-11,8c-7.5,3.1-14,7.1-21.1,10.5&#10;&#9;&#9;c-1.6-0.2-1.8,0.9-3.5,0.5c-1.7,1-3.5,1.8-5,3c-6.8,1.6-14.7,2-20.6,4.5c-1.2,0-2.3,0-3.5,0c-1.5,0.1-2.3,1.1-3.5,1.5&#10;&#9;&#9;c-14.7,1.3-29.5,2.3-43.2,1c-5.1-0.5-10.5-2.6-16.1-4c-10.7-2.7-19.5-3.9-26.6-9.5c-1.2,0-2.3,0-3.5,0c-1.2-1.1-2.7-2-3.5-3.5&#10;&#9;&#9;c-9.8-2.7-15.2-9.9-23.6-14.1c-1.8-1.9-3-4.3-6-5c0-2.6-2.7-2.7-3-5c-1.4-0.3-2.1-1.2-3.5-1.5c-5.3-8.8-13-15.1-17.1-25.1&#10;&#9;&#9;c-1-1-2-2-3-3c-5.6-11.9-12-23.2-14.6-38.2c-0.9-1.4-1.3-3.4-2.5-4.5c-0.8-17.9-3.9-37.2,1-54.2c-2.2-5.3,1.4-12.3,1.5-18.6&#10;&#9;&#9;c1.3-1.1,0.9-3.8,2.5-4.5c0.9-5.6,2.7-11.4,5.5-16.1c0.6-1,1.9-1.9,2.5-3c1.2-2.3,1.3-5.6,2.5-8c1.7-3.4,5.5-5.9,6-10&#10;&#9;&#9;c2.1-1.4,3.4-3.6,5.5-5c-0.3-1.8,1.1-1.9,1-3.5c3.9-3.3,7.1-7.3,10-11.5c5.8-5.4,12.3-10.1,17.6-16.1c2.1-0.1,2.6-1.7,4.5-2&#10;&#9;&#9;c2.5-3.5,7.3-5,12-7.5c4.4-2.3,6.7-5.9,12.6-6.5c4.7-3.9,13-4.1,18.6-7c1.5,0,3,0,4.5,0c21.7-6.6,49.8-4.6,70.3,2&#10;&#9;&#9;c7.5,0.7,13.7,2.7,18.6,6c1.9-0.4,2.4,0.6,4,0.5c1.4,1.3,3.4,1.9,4.5,3.5c12.2,3.7,19.4,12.4,29.6,18.1c3,4.3,7.9,6.9,10.5,11.5&#10;&#9;&#9;c1.8,1,3.1,2.6,5,3.5c-0.1,1.6,1.6,1.4,1,3.5c6.8,4.8,12.1,11,16.6,18.1c1.1,0.8,2.2,1.4,3.5,2c1.8,2.6,3.3,5.4,5.5,7.5&#10;&#9;&#9;c0,1.9,0.6,1.4,0,3c0.4,1.5,2.9,0.8,3,2.5c0.1,1.7,1.1,3.2-0.5,4c0.9,1.9,4.2,2.7,2,5c6.8,2.4,5.7,12.8,10,17.6&#10;&#9;&#9;c0.8,7.6,0.2,13.5,2.5,18.1C629.5,559.7,629.3,561.7,628.7,563.2z" style="fill-rule: evenodd; clip-rule: evenodd; fill: rgb(80, 77, 76);" transform="matrix(0.4767663180828095, 0, 0, 0.4767663180828095, -155.22979736328128, -198.81849673390388)"/><defs>
			<path d="M 938 0 H 1096 V 222.399994 H 938 V 0 Z" id="SVGID_2_"/>
		</defs><clipPath id="SVGID_3_">
			<use style="overflow:visible;" xlink:href="#SVGID_2_"/>
		</clipPath>

</svg>