<?xml version="1.0" encoding="utf-8"?>
<svg id="master-artboard" viewBox="0 0 1400 980" version="1.1" xmlns="http://www.w3.org/2000/svg" x="0px" y="0px" width="1400px" height="980px" style="enable-background:new 0 0 1400 980;"><rect id="ee-background" x="0" y="0" width="1400" height="980" style="fill: white; fill-opacity: 0; pointer-events: none;"/><defs><radialGradient id="gradient-0" gradientUnits="objectBoundingBox" cx="0.5" cy="0.5" r="0.5">
                <stop offset="0" style="stop-color: #000000"/>
                <stop offset="1" style="stop-color: #000000"/>
              </radialGradient></defs>

<path d="M 0 0 L 1400 0 L 1400 980 L 0 980 L 0 0 Z" id="XMLID_1939_" class="st0" style="fill: rgb(255, 255, 255);" transform="matrix(1, 0, 0, 1, 0, -1.000000000000007)"/>
<path d="M 381.55523681640625 652.9768676757812 L 560.0242309570312 319.58685302734375" style="fill: rgb(78, 56, 82); fill-opacity: 1; stroke: rgb(0, 0, 0); stroke-opacity: 1; stroke-width: 0; paint-order: fill;"/><path d="M 388.991455078125 766.9987182617188 L 413.77880859375 766.9987182617188 L 483.18341064453125 503.0133056640625 L 460.8747863769531 491.8590087890625" style="fill: rgb(0, 0, 0); fill-opacity: 0.68; stroke: rgb(0, 0, 0); stroke-opacity: 1; stroke-width: 0; paint-order: fill;" transform="matrix(1, 0, 0, 1, 234.24055826025912, -146.2454279085215)"/><path d="M 422.4543762207031 649.2587280273438" style="fill: rgb(78, 56, 82); fill-opacity: 0.2; stroke: rgb(0, 0, 0); stroke-opacity: 1; stroke-width: 0; paint-order: fill;"/><path d="M 393.4447937011719 779.22705078125 L 421.0257873535156 759.8909301757812 L 483.18341064453125 503.0133056640625 L 460.8747863769531 491.8590087890625" style="fill: rgb(0, 0, 0); fill-opacity: 0.85; stroke: rgb(0, 0, 0); stroke-opacity: 1; stroke-width: 0; paint-order: fill;" transform="matrix(-1, 0, 0, 1, 1177.820068359375, -156.92100524902344)"/><path d="M 388.991455078125 766.9987182617188 L 413.77880859375 766.9987182617188 L 483.18341064453125 503.0133056640625 L 460.8747863769531 491.8590087890625" style="fill: rgb(0, 0, 0); fill-opacity: 0.7; stroke: rgb(0, 0, 0); stroke-opacity: 1; stroke-width: 0; paint-order: fill;" transform="matrix(1, 0, 0, 1, 303.64516723117447, -145.00605385799722)"/><path d="M 387.79327392578125 769.6368408203125 L 412.0941467285156 738.9030151367188 L 498.06524658203125 570.8661804199219 L 442.1255187988281 567.1542663574219" style="fill: rgb(0, 0, 0); fill-opacity: 0.7; stroke: rgb(0, 0, 0); stroke-opacity: 1; stroke-width: 0; paint-order: fill;" transform="matrix(0.9293594344309478, 0.35264146837851695, -0.35264146837851695, 0.9293594344309478, 630.0218842784566, -229.7438633028557)"/><path d="M 421.24761962890625 615.1507568359375 L 431.07928466796875 671.2702026367188 L 483.18341064453125 503.0133056640625 L 460.8747863769531 491.8590087890625" style="fill: rgb(0, 0, 0); fill-opacity: 0.85; stroke: rgb(0, 0, 0); stroke-opacity: 1; stroke-width: 0; paint-order: fill;" transform="matrix(0.5774661302566528, -0.8164292573928833, 0.8164292573928833, 0.5774661302566528, 95.24593353271484, 440.531982421875)"/><path d="M 737.2537231445312 576.1359252929688" style="fill: rgb(255, 255, 255); fill-opacity: 1; stroke: rgb(0, 0, 0); stroke-opacity: 1; stroke-width: 0; paint-order: fill;"/><path d="M 776.9134521484375 520.3643188476562" style="fill: rgb(255, 255, 255); fill-opacity: 1; stroke: rgb(0, 0, 0); stroke-opacity: 1; stroke-width: 0; paint-order: fill;"/><path d="M 852.514892578125 485.66204833984375 L 852.514892578125 485.66204833984375" style="fill: rgb(0, 0, 0); fill-opacity: 0.67; stroke: rgb(0, 0, 0); stroke-opacity: 1; stroke-width: 0; paint-order: fill;"/><path style="fill: rgb(0, 0, 0); fill-opacity: 0.67; stroke: rgb(0, 0, 0); stroke-opacity: 1; stroke-width: 0; paint-order: fill;"/><path d="M 946.4109497070312 468.8707275390625 L 854.175048828125 547.2713012695312" style="fill: rgb(0, 0, 0); fill-opacity: 0.67; stroke: rgb(0, 0, 0); stroke-opacity: 1; stroke-width: 0; paint-order: fill;"/></svg>