<?xml version="1.0" encoding="utf-8"?>
<svg id="master-artboard" viewBox="0 0 1690.3936767578125 1400" version="1.1" xmlns="http://www.w3.org/2000/svg" x="0px" y="0px" style="enable-background:new 0 0 550 385;" width="1690.3936767578125px" height="1400px"><defs><radialGradient id="gradient-0" gradientUnits="objectBoundingBox" cx="0.5" cy="0.5" r="0.5">
                <stop offset="0" style="stop-color: #000000"/>
                <stop offset="1" style="stop-color: #000000"/>
              </radialGradient><radialGradient id="gradient-1" gradientUnits="objectBoundingBox" cx="0.5" cy="0.5" r="0.5">
                <stop offset="0" style="stop-color: #000000"/>
                <stop offset="1" style="stop-color: #000000"/>
              </radialGradient></defs><rect id="ee-background" x="0" y="0" width="1690.3936767578125" height="1400" style="fill: white; fill-opacity: 0; pointer-events: none;"/>

<pattern y="385" width="80" height="80" patternUnits="userSpaceOnUse" id="arabic_pattern" viewBox="0 -80 80 80" style="overflow:visible;">
	<g>
		<path d="M 0 0 L 80 0 L 80 -80 L 0 -80 Z" class="st0" style="fill: none;"/>
		<path class="st1" d="M75.2-53.8l4.8,4.8v0v2.3l-1.1-1.1L77-49.8l-1.8-1.8l-1.6-1.6l-5.7-5.7h0l-6.8,6.8v0l5.7,5.7l1.6,1.6l2.5,2.5&#10;&#9;&#9;&#9;l1.1,1.1l1.1,1.1h0l-1.1,1.1l-3.7,3.7l-1.6,1.6l-5.7,5.7l0,0l6.8,6.8l0,0l5.7-5.7l1.6-1.6l3.7-3.7l1.1-1.1v2.3l-4.8,4.8v12.3v2.3&#10;&#9;&#9;&#9;v6.8h-6.8h-2.3H53.8L49,0h-2.3l1.1-1.1L49.8-3l1.8-1.8l1.6-1.6l5.7-5.7l0,0l-6.8-6.8h0l-5.7,5.7l-1.6,1.6l-2.5,2.5l-1.1,1.1&#10;&#9;&#9;&#9;L40-6.8v0l-1.1-1.1L37-9.8l-1.8-1.8l-1.6-1.6l-5.7-5.7v0l-6.8,6.8l0,0l5.7,5.7l1.6,1.6l2.5,2.5l1.1,1.1L33.2,0h-2.3h0l-4.8-4.8&#10;&#9;&#9;&#9;H13.9h-2.3H4.8v-6.8v-2.3v-12.3L0-30.9v0v-2.3l1.1,1.1l3.7,3.7l1.6,1.6l5.7,5.7h0l6.8-6.8v0l-5.7-5.7l-1.6-1.6l-3.7-3.7L6.8-40h0&#10;&#9;&#9;&#9;v0l1.1-1.1l3.7-3.7l1.6-1.6l5.7-5.7l0,0l-6.8-6.8l0,0l-5.7,5.7l-1.6,1.6l-3.7,3.7L0-46.8V-49v0h0l4.8-4.8v-12.3v-2.3v-6.8h6.8h2.3&#10;&#9;&#9;&#9;h12.3l4.8-4.8v0h0h2.3l-1.1,1.1L30.2-77l-1.8,1.8l-1.6,1.6l-5.7,5.7l0,0l6.8,6.8h0l5.7-5.7l1.6-1.6l2.5-2.5l1.1-1.1l1.1-1.1v0&#10;&#9;&#9;&#9;l1.1,1.1l3.7,3.7l1.6,1.6l5.7,5.7h0l6.8-6.8h0l-5.7-5.7l-1.6-1.6l-3.7-3.7L46.8-80H49h0l0,0l4.8,4.8h12.3h2.3h6.8v6.8v2.3V-53.8z&#10;&#9;&#9;&#9; M60-69.1l4.5-4.5h-9.1L60-69.1z M46.4-64.5v9.1l4.5-4.5L46.4-64.5z M29.1-60l4.5,4.6v-9.1L29.1-60z M15.5-73.6l4.5,4.5l4.5-4.5&#10;&#9;&#9;&#9;H15.5z M10.9-60l-4.5-4.5v9.1L10.9-60z M20-53.2l1.1,1.1l3.1,3.1l0,0v0l2.6,2.6h6.8v-6.8L31-55.7l0,0l0,0l-3.1-3.1L26.8-60&#10;&#9;&#9;&#9;L20-66.8l-1.1-1.1l-3.8-3.8l0,0v0l-1.9-1.9H6.4v6.8l1.9,1.9h0l0,0l3.8,3.8l1.1,1.1L20-53.2z M15.5-46.4h9.1L20-50.9L15.5-46.4z&#10;&#9;&#9;&#9; M9.1-40L9.1-40L9.1-40z M20-29.1l4.5-4.5h-9.1L20-29.1z M6.4-15.5l4.5-4.5l-4.5-4.5V-15.5z M20-10.9l-4.6,4.6h9.1L20-10.9z&#10;&#9;&#9;&#9; M27.9-21.1l3.8-3.8l0,0l0,0l1.9-1.9v-6.8h-6.8l-1.9,1.9v0l0,0l-3.8,3.8L20-26.8L13.2-20l-1.1,1.1L9-15.7l0,0l0,0l-2.6,2.6v6.8&#10;&#9;&#9;&#9;h6.8L15.7-9v0l0,0l3.1-3.1l1.1-1.1l6.8-6.8L27.9-21.1z M33.6-15.5v-9.1L29.1-20L33.6-15.5z M50.9-20l-4.6-4.6v9.1L50.9-20z&#10;&#9;&#9;&#9; M64.5-6.4L60-10.9l-4.5,4.5H64.5z M69.1-20l4.5,4.5v-9.1L69.1-20z M60-26.8l-1.1-1.1L55.7-31l0,0l0,0l-2.6-2.6h-6.8v6.8l2.6,2.6&#10;&#9;&#9;&#9;l0,0l0,0l3.1,3.1l1.1,1.1l6.8,6.8l1.1,1.1l3.8,3.8l0,0l0,0l1.9,1.9h6.8v-6.8l-1.9-1.9l0,0l0,0l-3.8-3.8L66.8-20L60-26.8z&#10;&#9;&#9;&#9; M64.5-33.6h-9.1l4.5,4.5L64.5-33.6z M66.2-44.8H53.8h-2.3h-6.8v-6.8v-2.3v-12.3L40-70.9l-4.8,4.8v12.3v2.3v6.8h-6.8h-2.3H13.9&#10;&#9;&#9;&#9;L9.1-40v0h0l0,0l4.8,4.8h12.3h2.3h6.8v6.8v2.3v12.3L40-9l0,0v0l4.8-4.8v-12.3v-2.3v-6.8h6.8h2.3h12.3l4.8-4.8L66.2-44.8z M60-50.9&#10;&#9;&#9;&#9;l-4.6,4.6h9.1L60-50.9z M67.9-61.1l3.8-3.8l0,0h0l1.9-1.9v-6.8h-6.8l-1.9,1.9l0,0l0,0l-3.8,3.8L60-66.8L53.2-60l-1.1,1.1L49-55.7&#10;&#9;&#9;&#9;l0,0l0,0l-2.6,2.6v6.8h6.8l2.6-2.6l0,0l0,0l3.1-3.1l1.1-1.1l6.8-6.8L67.9-61.1z M73.6-55.5v-9.1L69.1-60L73.6-55.5z" style="fill: rgb(255, 255, 255);"/>
	</g>
</pattern>




<g transform="matrix(3.193328619003296, 0, 0, 3.193328619003296, -1594.6851806640625, -1121.717529296875)"><rect id="rect-2" x="0" y="0" width="1400" height="980" style="fill: white; fill-opacity: 0; pointer-events: none;"/><path d="M 381.55523681640625 652.9768676757812 L 560.0242309570312 319.58685302734375" style="fill: rgb(78, 56, 82); fill-opacity: 1; stroke: rgb(0, 0, 0); stroke-opacity: 1; stroke-width: 0; paint-order: fill;" transform="matrix(1.4978082180023193, 0, 0, 1.4978082180023193, -365.9413452148438, -146.09295654296875)"/><path d="M 388.991455078125 766.9987182617188 L 413.77880859375 766.9987182617188 L 483.18341064453125 503.0133056640625 L 460.8747863769531 491.8590087890625" style="fill: rgb(0, 0, 0); fill-opacity: 0.9; stroke: rgb(0, 0, 0); stroke-opacity: 1; stroke-width: 0; paint-order: fill;" transform="matrix(1.4978082180023193, 0, 0, 1.4978082180023193, -15.093910217285156, -365.1405334472656)"/><path d="M 422.4543762207031 649.2587280273438" style="fill: rgb(78, 56, 82); fill-opacity: 0.2; stroke: rgb(0, 0, 0); stroke-opacity: 1; stroke-width: 0; paint-order: fill;"/><path d="M 393.4447937011719 779.22705078125 L 421.0257873535156 759.8909301757812 L 483.18341064453125 503.0133056640625 L 460.8747863769531 491.8590087890625" style="fill: rgb(0, 0, 0); fill-opacity: 0.6; stroke: rgb(0, 0, 0); stroke-opacity: 1; stroke-width: 0; paint-order: fill;" transform="matrix(-1.4978082180023193, 0, 0, 1.4978082180023193, 1398.207275390625, -381.1305236816406)"/><path d="M 388.991455078125 766.9987182617188 L 413.77880859375 766.9987182617188 L 483.18341064453125 503.0133056640625 L 460.8747863769531 491.8590087890625" style="fill: rgb(0, 0, 0); fill-opacity: 0.9; stroke: rgb(0, 0, 0); stroke-opacity: 1; stroke-width: 0; paint-order: fill;" transform="matrix(1.4978082180023193, 0, 0, 1.4978082180023193, 88.86088562011719, -363.2842102050781)"/><path d="M 387.79327392578125 769.6368408203125 L 412.0941467285156 738.9030151367188 L 498.06524658203125 570.8661804199219 L 442.1255187988281 567.1542663574219" style="fill: rgb(0, 0, 0); fill-opacity: 0.7; stroke: rgb(0, 0, 0); stroke-opacity: 1; stroke-width: 0; paint-order: fill;" transform="matrix(1.3920022249221802, 0.5281893014907837, -0.5281893014907837, 1.3920022249221802, 577.710693359375, -490.2052001953125)"/><path d="M 421.24761962890625 615.1507568359375 L 431.07928466796875 671.2702026367188 L 483.18341064453125 503.0133056640625 L 460.8747863769531 491.8590087890625" style="fill: rgb(0, 0, 0); fill-opacity: 0.6; stroke: rgb(0, 0, 0); stroke-opacity: 1; stroke-width: 0; paint-order: fill;" transform="matrix(0.8649334907531739, -1.2228543758392334, 1.2228543758392334, 0.8649334907531739, -223.28118896484378, 513.7394409179688)"/><path d="M 737.2537231445312 576.1359252929688" style="fill: rgb(255, 255, 255); fill-opacity: 1; stroke: rgb(0, 0, 0); stroke-opacity: 1; stroke-width: 0; paint-order: fill;"/><path d="M 776.9134521484375 520.3643188476562" style="fill: rgb(255, 255, 255); fill-opacity: 1; stroke: rgb(0, 0, 0); stroke-opacity: 1; stroke-width: 0; paint-order: fill;"/><path d="M 852.514892578125 485.66204833984375 L 852.514892578125 485.66204833984375" style="fill: rgb(0, 0, 0); fill-opacity: 0.67; stroke: rgb(0, 0, 0); stroke-opacity: 1; stroke-width: 0; paint-order: fill;"/><path style="fill: rgb(0, 0, 0); fill-opacity: 0.67; stroke: rgb(0, 0, 0); stroke-opacity: 1; stroke-width: 0; paint-order: fill;"/><path d="M 946.4109497070312 468.8707275390625 L 854.175048828125 547.2713012695312" style="fill: rgb(0, 0, 0); fill-opacity: 0.67; stroke: rgb(0, 0, 0); stroke-opacity: 1; stroke-width: 0; paint-order: fill;" transform="matrix(1.4978082180023193, 0, 0, 1.4978082180023193, -365.9413452148438, -146.09295654296875)"/></g></svg>