<?xml version="1.0" encoding="utf-8"?>
<svg id="master-artboard" viewBox="0 0 1400 980" version="1.1" xmlns="http://www.w3.org/2000/svg" x="0px" y="0px" width="1400px" height="980px" style="enable-background:new 0 0 1400 980;"><rect id="ee-background" x="0" y="0" width="1400" height="980" style="fill: white; fill-opacity: 0; pointer-events: none;"/><defs><radialGradient id="gradient-0" gradientUnits="objectBoundingBox" cx="0.5" cy="0.5" r="0.5">
                <stop offset="0" style="stop-color: #000000"/>
                <stop offset="1" style="stop-color: #000000"/>
              </radialGradient></defs>


<path d="M 381.55523681640625 652.9768676757812 L 560.0242309570312 319.58685302734375" style="fill: rgb(78, 56, 82); fill-opacity: 1; stroke: rgb(0, 0, 0); stroke-opacity: 1; stroke-width: 0; paint-order: fill;" transform="matrix(1.4978082180023193, 0, 0, 1.4978082180023193, -365.9413452148438, -146.09295654296875)"/><path d="M 388.991455078125 766.9987182617188 L 413.77880859375 766.9987182617188 L 483.18341064453125 503.0133056640625 L 460.8747863769531 491.8590087890625" style="fill: rgb(0, 0, 0); fill-opacity: 0.68; stroke: rgb(0, 0, 0); stroke-opacity: 1; stroke-width: 0; paint-order: fill;" transform="matrix(1.4978082180023193, 0, 0, 1.4978082180023193, -15.093910217285156, -365.1405334472656)"/><path d="M 422.4543762207031 649.2587280273438" style="fill: rgb(78, 56, 82); fill-opacity: 0.2; stroke: rgb(0, 0, 0); stroke-opacity: 1; stroke-width: 0; paint-order: fill;"/><path d="M 393.4447937011719 779.22705078125 L 421.0257873535156 759.8909301757812 L 483.18341064453125 503.0133056640625 L 460.8747863769531 491.8590087890625" style="fill: rgb(0, 0, 0); fill-opacity: 0.85; stroke: rgb(0, 0, 0); stroke-opacity: 1; stroke-width: 0; paint-order: fill;" transform="matrix(-1.4978082180023193, 0, 0, 1.4978082180023193, 1398.207275390625, -381.1305236816406)"/><path d="M 388.991455078125 766.9987182617188 L 413.77880859375 766.9987182617188 L 483.18341064453125 503.0133056640625 L 460.8747863769531 491.8590087890625" style="fill: rgb(0, 0, 0); fill-opacity: 0.7; stroke: rgb(0, 0, 0); stroke-opacity: 1; stroke-width: 0; paint-order: fill;" transform="matrix(1.4978082180023193, 0, 0, 1.4978082180023193, 88.86088562011719, -363.2842102050781)"/><path d="M 387.79327392578125 769.6368408203125 L 412.0941467285156 738.9030151367188 L 498.06524658203125 570.8661804199219 L 442.1255187988281 567.1542663574219" style="fill: rgb(0, 0, 0); fill-opacity: 0.7; stroke: rgb(0, 0, 0); stroke-opacity: 1; stroke-width: 0; paint-order: fill;" transform="matrix(1.3920022249221802, 0.5281893014907837, -0.5281893014907837, 1.3920022249221802, 577.710693359375, -490.2052001953125)"/><path d="M 421.24761962890625 615.1507568359375 L 431.07928466796875 671.2702026367188 L 483.18341064453125 503.0133056640625 L 460.8747863769531 491.8590087890625" style="fill: rgb(0, 0, 0); fill-opacity: 0.85; stroke: rgb(0, 0, 0); stroke-opacity: 1; stroke-width: 0; paint-order: fill;" transform="matrix(0.8649334907531739, -1.2228543758392334, 1.2228543758392334, 0.8649334907531739, -223.28118896484378, 513.7394409179688)"/><path d="M 737.2537231445312 576.1359252929688" style="fill: rgb(255, 255, 255); fill-opacity: 1; stroke: rgb(0, 0, 0); stroke-opacity: 1; stroke-width: 0; paint-order: fill;"/><path d="M 776.9134521484375 520.3643188476562" style="fill: rgb(255, 255, 255); fill-opacity: 1; stroke: rgb(0, 0, 0); stroke-opacity: 1; stroke-width: 0; paint-order: fill;"/><path d="M 852.514892578125 485.66204833984375 L 852.514892578125 485.66204833984375" style="fill: rgb(0, 0, 0); fill-opacity: 0.67; stroke: rgb(0, 0, 0); stroke-opacity: 1; stroke-width: 0; paint-order: fill;"/><path style="fill: rgb(0, 0, 0); fill-opacity: 0.67; stroke: rgb(0, 0, 0); stroke-opacity: 1; stroke-width: 0; paint-order: fill;"/><path d="M 946.4109497070312 468.8707275390625 L 854.175048828125 547.2713012695312" style="fill: rgb(0, 0, 0); fill-opacity: 0.67; stroke: rgb(0, 0, 0); stroke-opacity: 1; stroke-width: 0; paint-order: fill;" transform="matrix(1.4978082180023193, 0, 0, 1.4978082180023193, -365.9413452148438, -146.09295654296875)"/></svg>