<?xml version="1.0" encoding="utf-8"?>
<svg id="master-artboard" viewBox="0 0 1400 980" version="1.1" xmlns="http://www.w3.org/2000/svg" x="0px" y="0px" width="1400px" height="980px" style="enable-background:new 0 0 1400 980;"><rect id="ee-background" x="0" y="0" width="1400" height="980" style="fill: rgb(255, 255, 255); fill-opacity: 1; pointer-events: none;"/><defs><radialGradient id="gradient-0" gradientUnits="objectBoundingBox" cx="0.5" cy="0.5" r="0.5">
                <stop offset="0" style="stop-color: #000000"/>
                <stop offset="1" style="stop-color: #000000"/>
              </radialGradient></defs>


<path d="M 381.55523681640625 652.9768676757812 L 560.0242309570312 319.58685302734375" style="fill: rgb(78, 56, 82); fill-opacity: 1; stroke: rgb(0, 0, 0); stroke-opacity: 1; stroke-width: 0; paint-order: fill;" transform="matrix(1.933990240097046, 0, 0, 1.933990240097046, -687.6082153320312, -372.50677490234375)"/><path d="M 388.991455078125 766.9987182617188 L 413.77880859375 766.9987182617188 L 483.18341064453125 503.0133056640625 L 460.8747863769531 491.8590087890625" style="fill: rgb(0, 0, 0); fill-opacity: 0.9; stroke: rgb(0, 0, 0); stroke-opacity: 1; stroke-width: 0; paint-order: fill;" transform="matrix(1.933990240097046, 0, 0, 1.933990240097046, -234.5892333984375, -655.3438720703125)"/><path d="M 422.4543762207031 649.2587280273438" style="fill: rgb(78, 56, 82); fill-opacity: 0.2; stroke: rgb(0, 0, 0); stroke-opacity: 1; stroke-width: 0; paint-order: fill;" transform="matrix(1, 0, 0, 1, -31.23931884765625, -9.0157470703125)"/><path d="M 406.4458312988281 787.0276489257812 L 421.0257873535156 759.8909301757812 L 483.18341064453125 503.0133056640625 L 460.8747863769531 491.8590087890625" style="fill: rgb(0, 0, 0); fill-opacity: 0.6; stroke: rgb(0, 0, 0); stroke-opacity: 1; stroke-width: 0; paint-order: fill;" transform="matrix(-1.933990240097046, 0, 0, 1.933990240097046, 1592.8668212890625, -675.9902954101562)"/><path d="M 388.991455078125 766.9987182617188 L 413.77880859375 766.9987182617188 L 483.18341064453125 503.0133056640625 L 460.8747863769531 491.8590087890625" style="fill: rgb(0, 0, 0); fill-opacity: 0.9; stroke: rgb(0, 0, 0); stroke-opacity: 1; stroke-width: 0; paint-order: fill;" transform="matrix(1.933990240097046, 0, 0, 1.933990240097046, -100.36140441894531, -652.947021484375)"/><path d="M 375.3463134765625 773.7014770507812 L 412.0941467285156 738.9030151367188 L 490.622802734375 575.1043395996094 L 445.0594177246094 572.8154602050781" style="fill: rgb(0, 0, 0); fill-opacity: 0.7; stroke: rgb(0, 0, 0); stroke-opacity: 1; stroke-width: 0; paint-order: fill;" transform="matrix(1.7973721027374268, 0.6820051670074464, -0.6820051670074464, 1.7973721027374268, 530.8480224609375, -816.8291015625001)"/><path d="M 421.24761962890625 615.1507568359375 L 424.83551025390625 665.0963134765625 L 483.18341064453125 503.0133056640625 L 463.0067443847656 492.2245178222656" style="fill: rgb(0, 0, 0); fill-opacity: 0.6; stroke: rgb(0, 0, 0); stroke-opacity: 1; stroke-width: 0; paint-order: fill;" transform="matrix(1.1168140172958374, -1.5789661407470703, 1.5789661407470703, 1.1168140172958374, -503.4034729003906, 479.477783203125)"/><path d="M 737.2537231445312 576.1359252929688" style="fill: rgb(255, 255, 255); fill-opacity: 1; stroke: rgb(0, 0, 0); stroke-opacity: 1; stroke-width: 0; paint-order: fill;" transform="matrix(1, 0, 0, 1, -31.23931884765625, -9.0157470703125)"/><path d="M 776.9134521484375 520.3643188476562" style="fill: rgb(255, 255, 255); fill-opacity: 1; stroke: rgb(0, 0, 0); stroke-opacity: 1; stroke-width: 0; paint-order: fill;" transform="matrix(1, 0, 0, 1, -31.23931884765625, -9.0157470703125)"/><path d="M 833.9243774414062 982.6484985351562" style="fill: rgb(0, 0, 0); fill-opacity: 0.67; stroke: rgb(0, 0, 0); stroke-opacity: 1; stroke-width: 0; paint-order: fill;" transform="matrix(1, 0, 0, 1, -31.23931884765625, -9.0157470703125)"/><path d="M 852.514892578125 485.66204833984375 L 852.514892578125 485.66204833984375" style="fill: rgb(0, 0, 0); fill-opacity: 0.67; stroke: rgb(0, 0, 0); stroke-opacity: 1; stroke-width: 0; paint-order: fill;" transform="matrix(1, 0, 0, 1, -31.23931884765625, -9.0157470703125)"/><path d="M 946.4109497070312 468.8707275390625 L 854.175048828125 547.2713012695312" style="fill: rgb(0, 0, 0); fill-opacity: 0.67; stroke: rgb(0, 0, 0); stroke-opacity: 1; stroke-width: 0; paint-order: fill;" transform="matrix(1.933990240097046, 0, 0, 1.933990240097046, -687.6082153320312, -372.50677490234375)"/><path d="M 398.64520263671875 782.4390869140625 L 421.0257873535156 759.8909301757812 L 475.63995361328125 507.6554260253906 L 460.8747863769531 491.8590087890625" style="fill: rgb(151, 153, 155); fill-opacity: 0.6; stroke: rgb(0, 0, 0); stroke-opacity: 1; stroke-width: 0; paint-order: fill;" transform="matrix(-1.933990240097046, 0, 0, 1.933990240097046, 1576.8348388671875, -669.172607421875)"/><path d="M 387.79327392578125 769.6368408203125 L 412.0941467285156 738.9030151367188 L 495.6940002441406 573.5783996582031 L 448.37957763671875 573.1721496582031" style="fill: rgb(151, 153, 155); fill-opacity: 0.52; stroke: rgb(0, 0, 0); stroke-opacity: 1; stroke-width: 0; paint-order: fill;" transform="matrix(1.7973721027374268, 0.6820051670074464, -0.6820051670074464, 1.7973721027374268, 505.82592773437506, -817.8616943359374)"/><path d="M 419.3327331542969 617.2788696289062 L 431.07928466796875 671.2702026367188 L 479.8441162109375 510.350341796875 L 465.1844787597656 508.0006103515625" style="fill: rgb(151, 153, 155); fill-opacity: 0.6; stroke: rgb(0, 0, 0); stroke-opacity: 1; stroke-width: 0; paint-order: fill;" transform="matrix(1.1168140172958374, -1.5789661407470703, 1.5789661407470703, 1.1168140172958374, -528.4256591796875, 475.39581298828125)"/><path d="M 1086.4781494140625 394.7540283203125" style="fill: rgb(54, 255, 205); fill-opacity: 0.6; stroke: rgb(0, 0, 0); stroke-opacity: 1; stroke-width: 0; paint-order: fill;" transform="matrix(1, 0, 0, 1, 35.1181640625, -27.24261474609375)"/><path d="M 388.991455078125 763.5171508789062 L 412.6182556152344 764.097412109375 L 483.18341064453125 503.0133056640625 L 460.8747863769531 491.8590087890625" style="fill: rgb(0, 0, 0); fill-opacity: 0.32; stroke: rgb(0, 0, 0); stroke-opacity: 1; stroke-width: 0; paint-order: fill;" transform="matrix(1.933990240097046, 0, 0, 1.933990240097046, -224.19015502929688, -649.033935546875)"/><path d="M 388.991455078125 766.9987182617188 L 413.77880859375 766.9987182617188 L 483.18341064453125 503.0133056640625 L 460.8747863769531 491.8590087890625" style="fill: rgb(0, 0, 0); fill-opacity: 0.61; stroke: rgb(0, 0, 0); stroke-opacity: 1; stroke-width: 0; paint-order: fill;" transform="matrix(1.933990240097046, 0, 0, 1.933990240097046, -85.03395080566406, -660.2561645507812)"/><path d="M 388.991455078125 766.9987182617188 L 413.77880859375 766.9987182617188 L 483.18341064453125 503.0133056640625 L 460.8747863769531 491.8590087890625" style="fill: rgb(0, 0, 0); fill-opacity: 0.31; stroke: rgb(0, 0, 0); stroke-opacity: 1; stroke-width: 0; paint-order: fill;" transform="matrix(1.933990240097046, 0, 0, 1.933990240097046, -74.9339370727539, -654.6450805664062)"/><path d="M 388.991455078125 760.6157836914062 L 409.1366882324219 761.196044921875 L 478.5412902832031 501.852783203125 L 460.8747863769531 491.8590087890625" style="fill: rgb(0, 0, 0); fill-opacity: 0.61; stroke: rgb(0, 0, 0); stroke-opacity: 1; stroke-width: 0; paint-order: fill;" transform="matrix(1.933990240097046, 0, 0, 1.933990240097046, -209.82437133789062, -642.8616943359375)"/><path d="M 393.4447937011719 779.22705078125 L 421.0257873535156 759.8909301757812 L 473.899169921875 506.494873046875 L 460.8747863769531 491.8590087890625" style="fill: rgb(0, 0, 0); fill-opacity: 0.6; stroke: rgb(0, 0, 0); stroke-opacity: 1; stroke-width: 0; paint-order: fill;" transform="matrix(-1.933990240097046, 0, 0, 1.933990240097046, 1567.89453125, -661.8119506835938)"/><path d="M 421.56982421875 620.3544921875 L 437.3431091308594 670.3109130859375 L 479.01214599609375 515.2032165527344 L 473.849853515625 509.72821044921875" style="fill: rgb(151, 153, 155); fill-opacity: 0.39; stroke: rgb(0, 0, 0); stroke-opacity: 1; stroke-width: 0; paint-order: fill;" transform="matrix(1.1168140172958374, -1.5789661407470703, 1.5789661407470703, 1.1168140172958374, -544.5347290039062, 480.434326171875)"/><path d="M 396.3160400390625 766.07373046875 L 412.0941467285156 738.9030151367188 L 495.23248291015625 572.9339294433594 L 449.8424987792969 574.6546936035156" style="fill: rgb(151, 153, 155); fill-opacity: 0.47; stroke: rgb(0, 0, 0); stroke-opacity: 1; stroke-width: 0; paint-order: fill;" transform="matrix(1.7973721027374268, 0.6820051670074464, -0.6820051670074464, 1.7973721027374268, 488.24414062500006, -817.0286865234376)"/><path d="M 963.1273803710938 551.7521362304688" style="fill: rgb(151, 153, 155); fill-opacity: 0.7; stroke: rgb(0, 0, 0); stroke-opacity: 1; stroke-width: 0; paint-order: fill;" transform="matrix(1, 0, 0, 1, -95.0076904296875, -13.49688720703125)"/><path d="M 1145.929443359375 557.0487060546875" style="fill: rgb(151, 153, 155); fill-opacity: 0.6; stroke: rgb(0, 0, 0); stroke-opacity: 1; stroke-width: 0; paint-order: fill;"/></svg>